<svg xmlns="http://www.w3.org/2000/svg" xmlns:xlink="http://www.w3.org/1999/xlink" width="2000" zoomAndPan="magnify" viewBox="0 0 1500 1499.999933" height="2000" preserveAspectRatio="xMidYMid meet" version="1.0"><defs><filter x="0%" y="0%" width="100%" height="100%" id="5f47528595"><feColorMatrix values="0 0 0 0 1 0 0 0 0 1 0 0 0 0 1 0 0 0 1 0" color-interpolation-filters="sRGB"/></filter><g/><clipPath id="5b2b7ee73b"><path d="M 0.558594 0.078125 L 867.679688 0.078125 L 867.679688 615.917969 L 0.558594 615.917969 Z M 0.558594 0.078125 " clip-rule="nonzero"/></clipPath><mask id="2b10c0d12e"><g filter="url(#5f47528595)"><rect x="-646" width="2160" fill="#000000" y="-771.999985" height="2159.999904" fill-opacity="0.87"/></g></mask><clipPath id="ebc6a49fa5"><path d="M 0.558594 0.972656 L 579 0.972656 L 579 604 L 0.558594 604 Z M 0.558594 0.972656 " clip-rule="nonzero"/></clipPath><clipPath id="2c0d0bf3d9"><path d="M 300 11 L 866.210938 11 L 866.210938 615 L 300 615 Z M 300 11 " clip-rule="nonzero"/></clipPath><clipPath id="b7ec87c1e4"><rect x="0" width="868" y="0" height="616"/></clipPath><mask id="3552455bba"><g filter="url(#5f47528595)"><rect x="-646" width="2160" fill="#000000" y="-771.999985" height="2159.999904" fill-opacity="0.88"/></g></mask><clipPath id="07b1bf8df1"><path d="M 0.285156 0.601562 L 323.894531 0.601562 L 323.894531 61.558594 L 0.285156 61.558594 Z M 0.285156 0.601562 " clip-rule="nonzero"/></clipPath><clipPath id="a65db1fa5d"><rect x="0" width="326" y="0" height="62"/></clipPath><mask id="8b55f8cfd2"><g filter="url(#5f47528595)"><rect x="-646" width="2160" fill="#000000" y="-771.999985" height="2159.999904" fill-opacity="0.87"/></g></mask><clipPath id="2ca6248987"><path d="M 27 0.421875 L 66 0.421875 L 66 53 L 27 53 Z M 27 0.421875 " clip-rule="nonzero"/></clipPath><clipPath id="737f609525"><path d="M 51 19 L 103.28125 19 L 103.28125 59 L 51 59 Z M 51 19 " clip-rule="nonzero"/></clipPath><clipPath id="5b9f844ec7"><path d="M 19 49 L 58 49 L 58 102.359375 L 19 102.359375 Z M 19 49 " clip-rule="nonzero"/></clipPath><clipPath id="293aa37f6c"><path d="M 0.8125 29 L 53 29 L 53 69 L 0.8125 69 Z M 0.8125 29 " clip-rule="nonzero"/></clipPath><clipPath id="03d47f71dc"><rect x="0" width="104" y="0" height="103"/></clipPath><clipPath id="ff3184b00e"><rect x="0" width="868" y="0" height="616"/></clipPath></defs><g transform="matrix(1, 0, 0, 1, 316, 442)"><g clip-path="url(#ff3184b00e)"><g clip-path="url(#5b2b7ee73b)"><g mask="url(#2b10c0d12e)"><g transform="matrix(1, 0, 0, 1, 0, 0.000000000000113687)"><g clip-path="url(#b7ec87c1e4)"><path fill="#ffffff" d="M 101.296875 95.414062 L 777.785156 95.414062 L 777.785156 513.339844 L 101.296875 513.339844 Z M 101.296875 95.414062 " fill-opacity="1" fill-rule="nonzero"/><path fill="#d93d76" d="M 107.226562 509.453125 C 110.476562 491.316406 108.714844 475.734375 109.023438 463.277344 C 109.332031 450.820312 106.738281 437.53125 106.679688 428.871094 C 106.625 420.210938 105.386719 413.214844 106.160156 404.554688 C 106.933594 395.894531 107.535156 374.230469 106.617188 366.113281 C 105.695312 358 104.453125 336.503906 104.453125 336.503906 C 104.453125 336.503906 103.5 322.519531 103.808594 316.019531 C 104.117188 309.523438 104.625 301.683594 105.085938 296.269531 C 105.550781 290.851562 107.226562 270.285156 107.226562 258.917969 C 107.226562 247.546875 105.460938 209.101562 105.386719 199.902344 C 105.304688 189.566406 105.09375 144.027344 105.09375 134.84375 C 105.09375 125.664062 102.941406 106.804688 101.84375 100.308594 C 100.746094 93.8125 98.9375 93.800781 98.175781 100.308594 C 97.410156 106.8125 97.867188 129.542969 98.175781 145.78125 C 98.484375 162.023438 94.921875 183.6875 95.109375 202.765625 C 95.296875 221.84375 93.578125 231.871094 94.191406 254.605469 C 94.800781 277.34375 94.34375 276.261719 96.183594 286.011719 C 98.019531 295.765625 97.101562 309.09375 96.742188 319.296875 C 95.792969 346.46875 94.515625 372.742188 94.058594 385.167969 C 93.605469 397.59375 92.996094 420.566406 93.605469 438.433594 C 94.214844 456.300781 94.816406 507.515625 95.484375 511.761719 C 98.386719 530.1875 106.160156 515.429688 107.226562 509.453125 Z M 107.226562 509.453125 " fill-opacity="1" fill-rule="nonzero"/><path fill="#d93d76" d="M 770.5625 385.167969 C 770.109375 397.625 769.5 420.566406 770.117188 438.433594 C 770.734375 456.300781 771.328125 507.515625 771.996094 511.761719 C 774.875 530.1875 782.648438 515.429688 783.714844 509.453125 C 786.964844 491.316406 785.203125 475.734375 785.511719 463.277344 C 785.820312 450.820312 783.21875 437.53125 783.160156 428.871094 C 783.101562 420.210938 781.875 413.214844 782.640625 404.554688 C 783.402344 395.894531 784.023438 374.230469 783.101562 366.113281 C 782.183594 358 780.941406 336.503906 780.941406 336.503906 C 780.941406 336.503906 779.988281 322.519531 780.296875 316.019531 C 780.605469 309.523438 781.109375 301.683594 781.566406 296.269531 C 782.023438 290.851562 783.714844 270.285156 783.714844 258.917969 C 783.714844 247.546875 781.949219 209.101562 781.875 199.902344 C 781.792969 189.566406 781.582031 144.027344 781.582031 134.84375 C 781.582031 125.664062 779.808594 104.503906 778.734375 98.007812 C 777.664062 91.507812 775.484375 93.8125 774.671875 100.308594 C 773.855469 106.804688 774.371094 129.542969 774.671875 145.78125 C 774.972656 162.023438 771.457031 183.6875 771.613281 202.765625 C 771.765625 221.84375 770.074219 231.871094 770.695312 254.605469 C 771.3125 277.34375 770.847656 276.261719 772.6875 286.011719 C 774.523438 295.765625 773.605469 309.09375 773.246094 319.296875 C 772.328125 346.441406 771.027344 372.71875 770.5625 385.167969 Z M 770.5625 385.167969 " fill-opacity="1" fill-rule="nonzero"/><path fill="#d93d76" d="M 741.839844 89.191406 C 714.613281 85.9375 691.226562 87.703125 672.53125 87.394531 C 653.835938 87.085938 633.886719 89.6875 620.882812 89.738281 C 607.878906 89.785156 597.382812 91.03125 584.378906 90.265625 C 571.375 89.5 538.839844 88.882812 526.640625 89.800781 C 514.441406 90.71875 482.199219 91.964844 482.199219 91.964844 C 482.199219 91.964844 461.199219 92.917969 451.449219 92.605469 C 441.699219 92.296875 429.933594 91.792969 421.808594 91.332031 C 413.683594 90.867188 382.773438 89.191406 365.695312 89.191406 C 348.621094 89.191406 290.921875 90.957031 277.113281 91.03125 C 261.597656 91.109375 193.238281 91.320312 179.421875 91.320312 C 165.605469 91.320312 137.332031 93.476562 127.582031 94.574219 C 117.828125 95.671875 117.820312 97.476562 127.582031 98.25 C 137.339844 99.023438 171.492188 98.550781 195.847656 98.25 C 220.207031 97.949219 252.734375 101.503906 281.375 101.308594 C 310.015625 101.113281 325.0625 102.835938 359.199219 102.226562 C 393.339844 101.617188 391.726562 102.074219 406.367188 100.234375 C 421.003906 98.398438 441.007812 99.316406 456.335938 99.675781 C 497.121094 100.625 536.5625 101.902344 555.25 102.367188 C 573.9375 102.828125 608.375 103.421875 635.195312 102.8125 C 662.015625 102.203125 738.90625 101.601562 745.265625 100.933594 C 772.960938 98.03125 750.808594 90.257812 741.839844 89.191406 Z M 741.839844 89.191406 " fill-opacity="1" fill-rule="nonzero"/><path fill="#d93d76" d="M 741.839844 505.546875 C 714.613281 502.296875 691.226562 504.058594 672.53125 503.75 C 653.835938 503.441406 633.886719 506.042969 620.882812 506.09375 C 607.878906 506.140625 597.382812 507.386719 584.378906 506.621094 C 571.375 505.855469 538.839844 505.238281 526.640625 506.160156 C 514.441406 507.078125 482.199219 508.320312 482.199219 508.320312 C 482.199219 508.320312 461.199219 509.273438 451.449219 508.964844 C 441.699219 508.65625 429.933594 508.152344 421.808594 507.6875 C 413.683594 507.222656 382.773438 505.546875 365.695312 505.546875 C 348.621094 505.546875 290.921875 507.3125 277.113281 507.386719 C 261.597656 507.46875 193.238281 507.679688 179.421875 507.679688 C 165.605469 507.679688 137.332031 509.832031 127.582031 510.933594 C 117.828125 512.03125 117.820312 513.84375 127.582031 514.609375 C 137.339844 515.371094 171.492188 514.910156 195.847656 514.609375 C 220.207031 514.304688 252.734375 517.820312 281.375 517.664062 C 310.015625 517.511719 325.0625 519.195312 359.199219 518.585938 C 393.339844 517.972656 391.726562 518.429688 406.367188 516.589844 C 421.003906 514.753906 441.007812 515.671875 456.335938 516.03125 C 497.121094 516.980469 536.5625 518.257812 555.25 518.722656 C 573.9375 519.1875 608.375 519.789062 635.195312 519.167969 C 662.015625 518.550781 738.90625 517.957031 745.265625 517.292969 C 772.960938 514.386719 750.808594 506.613281 741.839844 505.546875 Z M 741.839844 505.546875 " fill-opacity="1" fill-rule="nonzero"/><g clip-path="url(#ebc6a49fa5)"><path fill="#d93d76" d="M 299.769531 551.300781 C 297.738281 553.390625 293.003906 562.035156 288.824219 567.667969 C 284.710938 573.515625 275.773438 577.640625 269.664062 581.957031 C 266.96875 583.824219 264.050781 585.234375 260.914062 586.195312 L 250.683594 589.246094 C 246.300781 590.503906 244.023438 590.742188 242.496094 591.132812 C 240.917969 591.527344 239.4375 592.148438 238.046875 592.992188 C 233.980469 595.148438 228.132812 594.441406 223.808594 593.960938 C 214.59375 593.039062 205.746094 590.714844 197.265625 586.992188 C 190.882812 584.167969 184.832031 580.757812 179.113281 576.761719 C 174.625 573.667969 170.800781 569.898438 167.648438 565.449219 C 164.078125 560.570312 162.363281 555.511719 161.839844 554.820312 C 159.605469 551.789062 156.960938 551.640625 154.710938 553.039062 C 152.457031 554.4375 150.878906 557.429688 150.863281 559.042969 C 150.746094 561.734375 151.136719 564.355469 152.035156 566.898438 C 151.371094 567.316406 150.875 567.882812 150.546875 568.597656 C 149.339844 571.226562 147.941406 573.75 146.347656 576.167969 C 143.945312 579.566406 141.046875 582.464844 137.648438 584.871094 C 134.460938 587.136719 129.898438 588.390625 125.148438 589.039062 C 120.398438 589.691406 115.339844 589.953125 110.699219 590.855469 C 106.789062 591.605469 102.847656 591.875 98.875 591.667969 C 95.214844 591.511719 91.464844 591.269531 86.449219 590.75 C 83.453125 590.378906 80.535156 589.691406 77.691406 588.691406 C 76.058594 588.230469 74.394531 587.933594 72.703125 587.804688 C 67.824219 587.105469 63.320312 582.113281 60.644531 578.167969 C 57.09375 573.214844 54.539062 567.796875 52.984375 561.902344 C 51.929688 557.824219 51.335938 553.679688 51.195312 549.46875 C 50.835938 543.777344 51.925781 533.417969 54.050781 525.519531 C 54.863281 521.511719 57.75 513.996094 61.765625 507.996094 C 65.644531 501.847656 70.523438 497.601562 71.011719 496.683594 C 73.5 492.992188 72.492188 490.40625 70.199219 489.097656 C 68.960938 488.433594 67.636719 488.070312 66.230469 488.007812 C 66.449219 487.429688 66.597656 486.835938 66.679688 486.226562 C 67 484.175781 66.816406 482.171875 66.125 480.214844 C 63.207031 475.078125 59.140625 473.914062 56.699219 471.246094 C 54.449219 468.703125 50.046875 467.449219 48.472656 465.351562 C 46.894531 463.253906 44.777344 462.203125 44.160156 459.5625 C 43.542969 456.917969 41.492188 450.933594 39.914062 448.898438 C 38.78125 447.417969 37.796875 445.84375 36.957031 444.175781 C 36.027344 442.394531 35.378906 440.824219 35.378906 440.824219 C 35.378906 440.824219 33.566406 436.757812 33.582031 434.660156 C 33.589844 432.558594 33.773438 430.46875 34.132812 428.398438 C 34.402344 426.660156 35.761719 420.265625 35.890625 416.820312 C 35.890625 415.101562 35.613281 411.320312 35.613281 407.597656 C 35.570312 404.671875 35.769531 401.761719 36.214844 398.871094 C 36.917969 395.628906 37.894531 392.46875 39.144531 389.398438 C 40.34375 386.445312 41.859375 383.664062 43.6875 381.054688 C 45.078125 378.839844 47.460938 373.367188 48.632812 371.296875 C 49.210938 370.035156 49.105469 368.960938 48.4375 368.472656 C 48.4375 366.089844 47.753906 363.683594 47.097656 362.835938 C 42.835938 357.03125 37.710938 355.144531 34.507812 351.859375 C 31.394531 348.777344 26.425781 346.703125 24.34375 344.15625 C 22.433594 341.605469 19.894531 340.09375 18.960938 336.839844 C 18.023438 333.585938 15.226562 326.257812 13.648438 323.566406 C 12.65625 322.300781 11.542969 319.738281 10.527344 317.476562 L 9.054688 313.246094 C 8.742188 312.289062 8.492188 311.3125 8.296875 310.320312 C 7.863281 308.722656 7.703125 307.09375 7.820312 305.441406 C 8.082031 302.898438 8.605469 300.410156 9.386719 297.976562 C 10.03125 295.925781 12.894531 288.722656 14.445312 284.882812 C 15.023438 282.882812 16.347656 278.484375 18.015625 274.214844 C 19.390625 270.863281 21.050781 267.660156 23 264.609375 C 25.441406 261.222656 28.167969 258.085938 31.183594 255.199219 C 32.953125 253.476562 34.8125 251.847656 36.761719 250.320312 L 40.648438 247.546875 C 42.820312 246.125 46.460938 242.742188 49.039062 240.417969 C 51.375 240.328125 52.292969 238.398438 52.820312 236.539062 C 53.488281 233.976562 54.132812 231.851562 54.089844 230.917969 C 53.855469 226.097656 50.503906 223.191406 49.210938 219.761719 C 47.917969 216.328125 44.160156 213.695312 43.226562 211.214844 C 42.289062 208.734375 40.453125 207.148438 40.378906 204.359375 C 40.304688 201.570312 39.09375 195.089844 37.613281 192.902344 C 36.605469 191.300781 35.714844 189.640625 34.9375 187.914062 C 34.078125 186.09375 33.476562 184.582031 33.476562 184.582031 C 33.476562 184.582031 31.792969 180.582031 31.90625 178.5625 C 32 176.535156 32.289062 174.535156 32.777344 172.5625 C 33.125 170.886719 34.996094 165 35.574219 161.902344 C 35.808594 160.316406 36.027344 156.777344 36.703125 153.347656 C 37.167969 150.625 37.957031 148 39.070312 145.472656 C 40.511719 142.652344 42.25 140.023438 44.28125 137.59375 C 46.238281 135.214844 48.441406 133.09375 50.894531 131.234375 C 52.78125 129.65625 56.34375 125.542969 58.066406 123.703125 C 59.792969 125.359375 61.667969 126.828125 63.6875 128.113281 C 68.753906 130.160156 70.515625 128.113281 71.0625 125.5 C 71.488281 123.039062 71.234375 120.652344 70.296875 118.335938 C 68.410156 114.898438 66.242188 111.644531 63.792969 108.578125 C 62.695312 107.230469 61.765625 105.839844 60.773438 104.59375 C 59.929688 103.34375 59.15625 102.054688 58.449219 100.722656 C 56.007812 95.695312 51.617188 90.695312 50.660156 86.605469 C 49.625 82.667969 48.03125 79.449219 48.511719 75.21875 C 48.699219 74.179688 48.871094 72.78125 48.992188 71.15625 L 49.699219 66.089844 C 50.25 62.617188 50.992188 59.265625 51.039062 57.304688 C 51.269531 54.4375 51.808594 51.628906 52.667969 48.878906 C 53.25 47.058594 53.925781 45.269531 54.699219 43.519531 C 54.699219 43.519531 55.390625 41.953125 56.40625 40.082031 C 57.421875 38.25 58.65625 36.585938 60.109375 35.082031 C 62.480469 32.882812 65.101562 31.042969 67.972656 29.558594 C 70.28125 28.386719 72.664062 27.386719 75.121094 26.558594 C 78.160156 25.667969 81.234375 24.941406 84.351562 24.371094 C 88.953125 23.226562 93.621094 22.570312 98.363281 22.402344 C 103.089844 22.261719 107.796875 22.53125 112.480469 23.214844 C 117.847656 24.082031 123.097656 25.40625 128.230469 27.191406 C 134.597656 29.402344 139.828125 33.152344 141.347656 34.632812 C 142.867188 36.113281 145.59375 37.96875 147.855469 40.253906 C 149.78125 42.160156 151.488281 44.246094 152.976562 46.515625 C 153.359375 47.167969 153.847656 47.726562 154.441406 48.199219 C 153.496094 50.527344 152.953125 52.949219 152.8125 55.460938 C 152.621094 57.949219 152.890625 60.390625 153.628906 62.777344 C 154.675781 65.59375 156.515625 65.21875 157.296875 62.933594 C 157.703125 61.761719 158.042969 59.167969 158.976562 56.125 C 159.992188 52.898438 161.347656 49.816406 163.042969 46.886719 C 164.671875 44.113281 167.640625 41.578125 170.820312 39.308594 C 174 37.039062 177.460938 35.046875 180.195312 32.65625 C 185.96875 28.109375 190.035156 27.445312 197.566406 23.53125 C 199.894531 22.402344 202.273438 21.398438 204.707031 20.515625 C 206.046875 20.003906 206.714844 19.335938 208.363281 18.132812 C 211.683594 15.433594 217.148438 15.914062 221.027344 16.277344 C 231.703125 17.140625 240.40625 22.117188 244.195312 24.558594 C 248.171875 26.914062 254.597656 32.210938 259.335938 36.617188 C 263.070312 40.109375 266.144531 44.109375 268.550781 48.621094 C 271.257812 53.597656 272.617188 58.515625 273 59.191406 C 274.925781 62.25 277.667969 62.519531 279.953125 61.347656 C 281.007812 60.785156 281.921875 60.046875 282.691406 59.132812 C 283.457031 58.214844 284.027344 57.191406 284.398438 56.054688 C 284.753906 53.578125 284.667969 51.121094 284.140625 48.675781 C 284.441406 48.042969 284.773438 47.402344 285.132812 46.734375 C 286.972656 43.136719 289.167969 39.773438 291.71875 36.640625 C 294.101562 33.722656 297.851562 31.191406 301.949219 29.144531 C 306.046875 27.09375 310.359375 25.28125 314.148438 23.160156 C 317.460938 21.371094 320.933594 19.996094 324.574219 19.035156 C 327.964844 18.035156 331.566406 17.050781 336.519531 15.390625 C 346.503906 12.238281 346.140625 13.140625 350.34375 10.570312 C 354.546875 8 361.019531 8.652344 365.6875 9.195312 C 378.34375 10.433594 389.183594 15.605469 393.632812 18.492188 C 398.300781 21.117188 405.976562 27.242188 411.132812 32.84375 C 415.277344 37.171875 418.472656 42.117188 420.710938 47.675781 C 423.273438 53.800781 423.621094 59.679688 424.019531 60.566406 C 425.3125 64.421875 427.941406 65.324219 430.414062 64.453125 C 431.921875 63.855469 433.195312 62.933594 434.234375 61.6875 C 434.78125 61.476562 435.257812 61.15625 435.65625 60.730469 C 437.40625 58.71875 441.886719 50.863281 446.125 45.839844 C 450.289062 40.609375 459.136719 37.609375 465.195312 33.640625 C 471.449219 29.574219 475.667969 29.347656 483.605469 25.867188 C 491.777344 22.6875 491.527344 23.558594 494.902344 20.988281 C 496.625 19.703125 498.902344 19.3125 501.203125 19.042969 C 503.425781 19.011719 505.640625 19.101562 507.855469 19.3125 C 512.847656 19.816406 517.726562 20.859375 522.492188 22.433594 C 525.8125 23.582031 529.039062 24.953125 532.171875 26.550781 C 536.496094 28.535156 543.816406 32.957031 549.394531 36.601562 C 553.730469 39.511719 557.585938 42.960938 560.964844 46.945312 C 564.714844 51.367188 567.269531 55.890625 567.835938 56.523438 C 570.503906 59.09375 573.203125 58.632812 575.15625 56.921875 C 576.027344 56.109375 576.71875 55.164062 577.230469 54.085938 C 577.738281 53.007812 578.03125 51.875 578.109375 50.6875 C 577.902344 48.574219 577.40625 46.527344 576.628906 44.554688 C 575.863281 42.800781 574.933594 41.140625 573.832031 39.578125 C 571.691406 36.617188 569.269531 34.382812 567.414062 32.144531 C 563.542969 27.664062 557.109375 25.859375 553.949219 23.753906 C 550.785156 21.644531 547.441406 21.117188 544.359375 18.667969 C 541.996094 16.960938 539.464844 15.546875 536.773438 14.425781 C 534.167969 13.195312 531.433594 12.453125 528.566406 12.1875 C 526.6875 12.1875 523.386719 11.929688 520.550781 11.929688 C 519.132812 11.863281 517.832031 11.929688 516.890625 11.929688 L 515.359375 11.96875 C 515.359375 11.96875 513.824219 11.96875 511.953125 12.171875 C 510.128906 12.300781 508.304688 12.324219 506.480469 12.246094 C 503.683594 12.042969 500.25 11.652344 497.859375 11.570312 C 495.46875 11.148438 486.199219 11.335938 481.296875 12.863281 C 480.101562 13.277344 478.222656 14.050781 476.042969 14.992188 C 473.863281 15.9375 471.480469 17.328125 469.121094 18.605469 C 464.46875 21.371094 460.296875 24.507812 458.621094 25.605469 L 453.945312 29.015625 C 451.9375 30.582031 449.597656 32.527344 447.382812 34.566406 C 445.296875 36.496094 443.3125 38.527344 441.433594 40.660156 C 440.160156 42 438.96875 43.410156 437.863281 44.886719 C 437.101562 45.8125 436.460938 46.816406 435.941406 47.898438 C 435.746094 46.894531 435.503906 45.929688 435.234375 45 C 433.964844 41.308594 432.402344 37.75 430.542969 34.316406 C 427.542969 27.933594 420.914062 23.859375 417.71875 20.742188 C 414.464844 17.492188 410.886719 16.074219 407.660156 12.847656 C 405.136719 10.46875 402.335938 8.480469 399.257812 6.886719 C 396.320312 5.199219 393.179688 4.070312 389.839844 3.496094 C 387.6875 3.21875 383.847656 2.683594 380.5625 2.503906 C 377.277344 2.324219 374.554688 2.226562 374.554688 2.226562 L 370.59375 2.226562 C 368.421875 2.292969 365.859375 2.265625 364.242188 2.144531 C 360.988281 1.738281 357.054688 1.4375 354.289062 1.21875 C 351.5625 0.851562 340.894531 0.691406 335.25 2.257812 C 330.28125 3.691406 325.46875 5.53125 320.816406 7.789062 C 316.429688 9.898438 312.164062 12.238281 308.023438 14.796875 C 303.140625 17.578125 298.542969 20.777344 294.238281 24.394531 C 290.003906 27.96875 286.25 31.996094 282.976562 36.472656 C 282.105469 37.644531 281.390625 38.902344 280.832031 40.253906 L 280.757812 40.421875 C 279.722656 38.632812 278.660156 37.015625 277.804688 35.445312 C 274.894531 30.175781 268.707031 27.3125 265.933594 24.710938 C 263.003906 22.0625 259.847656 21.050781 257.109375 18.253906 C 256.179688 17.355469 255.207031 16.507812 254.1875 15.710938 C 252.9375 14.839844 251.496094 13.902344 250.035156 13.027344 C 247.023438 11.398438 243.84375 10.164062 241.902344 10.042969 C 240.046875 9.78125 236.671875 9.429688 233.828125 9.226562 L 230.160156 9.105469 C 229.214844 9.105469 228.621094 9.105469 228.621094 9.105469 L 225.199219 9.1875 C 223.367188 9.335938 221.535156 9.359375 219.699219 9.253906 L 215.21875 8.886719 L 211.03125 8.683594 C 208.570312 8.566406 206.117188 8.625 203.664062 8.863281 C 200.519531 9.128906 197.453125 9.769531 194.46875 10.789062 C 190.296875 12.570312 186.371094 14.792969 182.699219 17.457031 C 179.28125 19.941406 176.015625 22.605469 172.902344 25.460938 C 169.230469 28.578125 165.851562 31.980469 162.761719 35.675781 C 160.394531 38.484375 158.269531 41.464844 156.382812 44.621094 C 155.578125 41.289062 154.128906 38.273438 152.027344 35.566406 C 148.996094 31.582031 145.328125 28.3125 141.023438 25.761719 C 137.207031 23.453125 132.890625 20.523438 128.011719 18.09375 C 123.207031 15.578125 118.140625 13.824219 112.8125 12.832031 C 107.753906 12.019531 103.867188 11.203125 99.558594 10.617188 C 94.328125 9.871094 89.132812 10.054688 83.96875 11.171875 C 77.460938 12.691406 74.460938 14.140625 72.46875 15.15625 C 70.542969 16.207031 68.890625 17.582031 67.507812 19.289062 C 63.6875 23.636719 57.585938 27.605469 53.683594 31.875 C 48.664062 37.167969 44.644531 43.128906 41.625 49.765625 C 39.441406 54.5625 37.851562 59.546875 36.859375 64.722656 C 35.347656 71.714844 35.417969 85.371094 39.421875 94.933594 C 42.1875 102.433594 45.980469 109.367188 50.804688 115.742188 C 52.066406 117.429688 53.421875 119.035156 54.871094 120.566406 C 53.5 121.09375 52.1875 121.738281 50.925781 122.492188 C 48.378906 124.054688 46.046875 125.890625 43.933594 128.007812 C 41.988281 129.902344 39.207031 131.578125 36.46875 133.699219 C 33.726562 135.820312 31.050781 138.421875 29.570312 141.457031 C 26.808594 147.5 23.929688 150.402344 22.960938 158.414062 C 22.398438 166.324219 22.238281 165.957031 23.894531 169.324219 C 25.554688 172.691406 24.945312 176.953125 25.035156 180.394531 C 25.300781 187.609375 25.980469 194.789062 27.074219 201.925781 C 27.703125 205.921875 29.335938 213.246094 32.042969 218.558594 C 34.042969 222.832031 36.269531 226.984375 38.71875 231.015625 C 40.054688 233.183594 41.578125 235.210938 43.28125 237.097656 L 43.601562 237.449219 C 39.855469 239.386719 36.359375 241.707031 33.117188 244.402344 C 30.484375 246.53125 26.976562 248.46875 23.414062 250.832031 C 21.644531 252.011719 19.953125 253.371094 18.261719 254.746094 C 16.691406 256.179688 15.273438 257.753906 14.007812 259.460938 C 9.46875 266.261719 5.746094 269.359375 2.621094 278.980469 C 1.402344 283.792969 0.824219 286.09375 0.679688 287.769531 C 0.472656 289.433594 0.640625 291.0625 1.183594 292.648438 C 2.214844 297.046875 1.019531 302.511719 0.792969 306.9375 C 0.214844 318.613281 2.742188 330.074219 4.65625 335.203125 C 6.28125 340.410156 10.882812 349.6875 16.542969 355.308594 C 19.300781 358.136719 24.71875 363.519531 30.433594 367.320312 C 33.707031 369.550781 37.152344 371.476562 40.769531 373.09375 C 38.945312 375.28125 37.363281 377.636719 36.019531 380.152344 C 33.449219 384.898438 27.335938 390.722656 26.050781 397.398438 C 24.847656 403.90625 22.652344 407.15625 22.945312 415.078125 C 23.414062 422.84375 23.125 422.46875 25.058594 425.648438 C 26.992188 428.828125 26.605469 433.253906 26.808594 436.726562 C 27.222656 445.90625 29.085938 455.03125 30.546875 459.234375 C 31.808594 463.464844 35.371094 471.125 40.011719 475.742188 C 43.460938 479.441406 47.234375 482.765625 51.332031 485.722656 C 53.824219 487.464844 56.453125 488.960938 59.222656 490.210938 C 56.121094 492.171875 53.464844 494.609375 51.242188 497.53125 C 49.84375 499.269531 48.804688 501.132812 47.699219 502.816406 C 46.59375 504.5 45.820312 506.246094 44.851562 507.753906 C 41.09375 513.996094 41.144531 522.089844 40.191406 526.699219 C 39.09375 531.433594 39.890625 535.402344 38.816406 540.101562 C 38.613281 541.296875 38.410156 542.949219 38.25 544.84375 C 38.085938 546.738281 38.191406 548.851562 38.347656 550.964844 C 38.597656 554.570312 39.429688 558.039062 40.835938 561.367188 C 41.910156 563.441406 43.761719 567.15625 45.640625 570.140625 C 47.519531 573.125 49.316406 575.460938 49.316406 575.460938 L 51.984375 578.761719 C 53.488281 580.550781 55.335938 582.585938 56.382812 583.992188 C 58.550781 586.898438 60.90625 589.640625 63.449219 592.21875 C 65.644531 594.457031 68.042969 596.441406 70.65625 598.171875 C 74.074219 600.425781 77.769531 602.050781 81.738281 603.050781 C 84.945312 603.867188 92.132812 604.34375 98.777344 603.515625 C 103.886719 602.847656 108.949219 601.910156 113.960938 600.703125 C 119.765625 599.613281 125.441406 598.046875 130.988281 596.003906 C 138.113281 593.414062 144.472656 588.773438 146.332031 586.949219 C 148.894531 584.539062 150.84375 581.707031 152.179688 578.453125 C 153.175781 576.15625 153.789062 573.761719 154.027344 571.273438 L 154.195312 571.582031 C 156.199219 575.019531 158.660156 577.625 160.539062 580.136719 C 164.46875 585.203125 171.242188 587.457031 174.632812 589.714844 C 178.023438 591.976562 181.601562 592.636719 184.96875 595.089844 C 187.546875 596.824219 190.296875 598.226562 193.214844 599.296875 C 196.566406 600.539062 200.011719 601.371094 201.980469 601.304688 L 210.390625 601.371094 C 213.367188 601.371094 215.820312 601.230469 215.820312 601.230469 L 219.390625 601.050781 C 221.304688 600.929688 223.21875 600.929688 225.132812 601.050781 L 234.078125 602.167969 C 236.519531 602.574219 246.066406 603.566406 251.472656 602.386719 C 256.277344 601.308594 260.84375 599.597656 265.175781 597.253906 C 269.1875 595.046875 272.984375 592.515625 276.5625 589.660156 C 280.675781 586.582031 284.484375 583.167969 287.988281 579.414062 C 291.324219 575.789062 294.414062 571.96875 297.265625 567.953125 C 299.820312 564.554688 302.519531 556.1875 302.957031 553.152344 C 303.398438 550.121094 301.84375 549.234375 299.769531 551.300781 Z M 299.769531 551.300781 " fill-opacity="1" fill-rule="nonzero"/></g><g clip-path="url(#2c0d0bf3d9)"><path fill="#d93d76" d="M 867.320312 290.0625 C 867.207031 288.5 867.042969 286.851562 866.847656 285.28125 C 866.59375 283.875 866.253906 282.492188 865.832031 281.125 C 865.140625 278.75 862.683594 273.898438 859.910156 269.480469 C 857.136719 265.066406 853.789062 261.226562 852.59375 259.722656 C 849.753906 256.050781 846.625 252.640625 843.207031 249.5 C 841.191406 247.636719 839.085938 245.878906 836.890625 244.230469 L 832.523438 241.207031 C 830.226562 239.90625 827.785156 238.988281 825.203125 238.457031 C 827.492188 237.070312 829.308594 235.214844 830.644531 232.894531 C 832.027344 230.453125 832.816406 228.160156 833.824219 226.308594 C 835.914062 222.542969 835.066406 217.515625 835.929688 214.882812 C 836.792969 212.246094 836.359375 209.703125 837.921875 207.285156 C 839.484375 204.871094 841.988281 198.339844 841.71875 195.566406 C 841.597656 194.195312 841.636719 191.769531 841.71875 189.679688 C 841.800781 187.589844 841.792969 185.816406 841.792969 185.816406 C 841.792969 185.816406 841.792969 184.558594 841.792969 183.246094 C 841.785156 181.882812 841.902344 180.527344 842.140625 179.183594 C 842.628906 177.359375 843.304688 174.863281 843.859375 172.832031 C 844.445312 171.113281 845.921875 164.089844 845.207031 160.160156 C 844.515625 156.730469 843.433594 153.429688 841.957031 150.253906 C 840.566406 147.277344 838.988281 144.410156 837.214844 141.644531 C 835.359375 138.386719 833.191406 135.355469 830.707031 132.550781 C 828.296875 129.808594 825.621094 127.351562 822.683594 125.183594 C 822.351562 124.925781 822.003906 124.695312 821.632812 124.5 C 823.992188 122.742188 826.066406 120.691406 827.855469 118.351562 C 829.128906 116.652344 830.308594 114.890625 831.398438 113.066406 C 832.398438 111.3125 833.285156 109.636719 834.253906 108.132812 C 838.011719 101.878906 837.953125 93.785156 838.90625 89.175781 C 840.003906 84.441406 839.214844 80.472656 840.28125 75.773438 C 840.492188 74.578125 840.695312 72.925781 840.855469 71.039062 C 840.855469 69.152344 840.90625 67.023438 840.75 64.917969 C 840.386719 60.695312 839.3125 56.582031 838.3125 54.507812 C 837.3125 52.433594 835.382812 48.71875 833.496094 45.734375 C 831.609375 42.75 829.820312 40.421875 829.820312 40.421875 C 829.820312 40.421875 828.625 38.925781 827.164062 37.113281 C 825.699219 35.300781 823.8125 33.292969 822.753906 31.882812 C 820.589844 28.976562 818.234375 26.234375 815.6875 23.65625 C 813.5 21.417969 811.097656 19.433594 808.484375 17.710938 C 805.066406 15.457031 801.375 13.832031 797.40625 12.832031 C 794.15625 12.019531 787.007812 11.539062 780.328125 12.375 C 775.21875 13.042969 770.160156 13.976562 765.148438 15.179688 C 759.332031 16.257812 753.648438 17.8125 748.09375 19.839844 C 740.960938 22.425781 734.601562 27.070312 732.742188 28.890625 C 730.183594 31.304688 728.234375 34.136719 726.894531 37.390625 C 725.902344 39.6875 725.289062 42.085938 725.054688 44.578125 L 724.886719 44.261719 C 722.875 40.820312 720.414062 38.226562 718.535156 35.707031 C 714.605469 30.640625 707.839844 28.386719 704.449219 26.125 C 701.058594 23.867188 697.480469 23.214844 694.113281 20.757812 C 691.535156 19.023438 688.785156 17.617188 685.867188 16.546875 C 682.515625 15.3125 679.0625 14.472656 677.101562 14.546875 L 668.683594 14.472656 C 665.714844 14.472656 663.25 14.621094 663.25 14.621094 L 659.683594 14.796875 C 657.769531 14.917969 655.859375 14.917969 653.949219 14.796875 L 645.003906 13.675781 C 642.5625 13.269531 633.015625 12.285156 627.601562 13.457031 C 622.800781 14.539062 618.234375 16.25 613.90625 18.589844 C 609.894531 20.796875 606.097656 23.332031 602.519531 26.191406 C 598.417969 29.265625 594.621094 32.679688 591.136719 36.4375 C 587.78125 40.054688 584.675781 43.875 581.816406 47.898438 C 579.261719 51.296875 576.5625 59.671875 576.125 62.707031 C 575.683594 65.738281 577.230469 66.609375 579.304688 64.542969 C 581.378906 62.476562 586.101562 53.832031 590.25 48.140625 C 594.363281 42.285156 603.308594 38.164062 609.417969 33.84375 C 612.117188 31.984375 615.03125 30.574219 618.167969 29.617188 L 628.390625 26.589844 C 632.78125 25.339844 635.058594 25.09375 636.585938 24.703125 C 638.152344 24.300781 639.625 23.675781 641.003906 22.824219 C 645.066406 20.679688 650.914062 21.378906 655.25 21.867188 C 664.464844 22.785156 673.3125 25.105469 681.792969 28.828125 C 688.175781 31.65625 694.226562 35.070312 699.953125 39.066406 C 704.445312 42.15625 708.265625 45.925781 711.417969 50.375 C 714.988281 55.257812 716.695312 60.304688 717.226562 60.996094 C 719.453125 64.03125 722.105469 64.175781 724.347656 62.777344 C 726.59375 61.378906 728.179688 58.386719 728.203125 56.785156 C 728.308594 54.097656 727.917969 51.488281 727.023438 48.953125 C 727.6875 48.535156 728.191406 47.972656 728.527344 47.261719 C 729.285156 45.953125 730.449219 42.894531 732.734375 39.691406 C 735.128906 36.28125 738.027344 33.367188 741.425781 30.957031 C 744.613281 28.695312 749.175781 27.4375 753.933594 26.785156 C 758.691406 26.136719 763.691406 25.875 768.375 24.972656 C 772.289062 24.226562 776.230469 23.957031 780.207031 24.160156 C 783.859375 24.3125 787.617188 24.558594 792.625 25.085938 C 795.621094 25.453125 798.539062 26.136719 801.382812 27.144531 C 803.015625 27.605469 804.679688 27.898438 806.371094 28.03125 C 811.25 28.730469 815.761719 33.722656 818.4375 37.667969 C 821.988281 42.617188 824.539062 48.039062 826.097656 53.929688 C 827.148438 58.011719 827.742188 62.15625 827.878906 66.363281 C 828.238281 72.058594 827.148438 82.417969 825.023438 90.320312 C 824.210938 94.324219 821.332031 101.84375 817.316406 107.839844 C 813.46875 113.96875 808.566406 118.222656 808.0625 119.140625 C 805.570312 122.824219 806.589844 125.421875 808.875 126.730469 C 810.234375 127.441406 811.683594 127.808594 813.214844 127.835938 C 815.964844 129.199219 818.5625 130.8125 821.007812 132.664062 C 822.902344 134.105469 824.261719 136.683594 825.367188 139.375 C 826.472656 142.066406 827.234375 144.871094 828.496094 147.148438 C 830.9375 151.839844 830.308594 154.957031 832.097656 160.902344 C 833.636719 167.074219 832.960938 166.835938 834.9375 169.554688 C 836.914062 172.269531 835.75 176.390625 834.984375 179.3125 C 833.027344 186.988281 829.441406 194.566406 828.042969 198.015625 C 825.929688 202.929688 824.132812 207.957031 822.640625 213.09375 C 821.59375 217.007812 820.214844 220.800781 818.511719 224.476562 C 816.679688 228.542969 814.738281 230.886719 814.679688 231.40625 C 814.554688 232.582031 814.683594 233.730469 815.074219 234.847656 C 815.464844 235.964844 816.078125 236.945312 816.910156 237.789062 C 815.421875 238.308594 815.421875 239.691406 817.015625 240.992188 C 819.113281 242.410156 827.03125 245.792969 832.171875 249.386719 C 837.507812 252.914062 840.9375 261.144531 844.980469 266.675781 C 849.136719 272.367188 849.46875 276.433594 853 283.753906 C 854.625 287.542969 855.128906 289.445312 855.585938 290.738281 C 856.152344 292.039062 856.886719 293.242188 857.789062 294.339844 C 860.308594 297.59375 859.644531 302.871094 859.164062 306.613281 C 857.980469 314.742188 855.308594 322.347656 851.152344 329.429688 C 848.972656 333.433594 844.425781 340.246094 840.710938 345.492188 C 837.761719 349.601562 834.351562 353.285156 830.480469 356.542969 C 826.128906 360.128906 821.804688 362.78125 821.226562 363.351562 C 818.925781 365.984375 819.414062 368.546875 821.015625 370.390625 C 818.738281 369.984375 817.828125 371.554688 818.84375 373.3125 C 819.992188 374.9375 824.992188 379.222656 827.707031 383.363281 C 830.585938 387.542969 829.699219 394.828125 830.960938 400.140625 C 832.269531 405.667969 831.050781 408.808594 831.929688 415.515625 C 832.667969 422.371094 832.058594 422.023438 833.800781 425.105469 C 835.539062 428.1875 834.132812 432.308594 833.277344 435.320312 C 831.46875 441.734375 828.804688 447.769531 825.285156 453.429688 C 823.453125 456.59375 819.804688 461.910156 817.0625 466.15625 C 814.890625 469.476562 812.328125 472.457031 809.371094 475.101562 C 806.117188 478.054688 802.75 480.09375 802.367188 480.664062 C 800.660156 483.0625 801.320312 485.679688 802.929688 487.625 C 804.246094 489.230469 805.914062 490.265625 807.9375 490.730469 C 807.601562 493.0625 807.871094 495.320312 808.75 497.503906 C 810.636719 500.945312 812.804688 504.199219 815.257812 507.265625 C 816.347656 508.621094 817.28125 510.011719 818.273438 511.257812 C 819.117188 512.503906 819.894531 513.789062 820.601562 515.121094 C 823.039062 520.144531 827.421875 525.148438 828.390625 529.246094 C 829.421875 533.171875 831.019531 536.402344 830.53125 540.628906 C 830.351562 541.671875 830.179688 543.070312 830.050781 544.695312 L 829.34375 549.769531 C 828.789062 553.242188 828.058594 556.585938 828.007812 558.554688 C 827.777344 561.417969 827.234375 564.226562 826.382812 566.96875 C 825.800781 568.792969 825.125 570.578125 824.347656 572.328125 C 824.347656 572.328125 823.65625 573.898438 822.640625 575.769531 C 821.628906 577.601562 820.394531 579.269531 818.941406 580.777344 C 816.566406 582.972656 813.941406 584.8125 811.070312 586.300781 C 808.761719 587.464844 806.378906 588.464844 803.929688 589.292969 C 800.90625 590.214844 797.847656 590.980469 794.75 591.59375 C 790.148438 592.738281 785.480469 593.390625 780.746094 593.554688 C 776.011719 593.695312 771.304688 593.425781 766.621094 592.742188 C 761.25 591.878906 756 590.554688 750.867188 588.765625 C 746.035156 587.097656 741.664062 584.617188 737.757812 581.324219 C 736.132812 579.941406 733.511719 577.996094 731.253906 575.710938 C 729.324219 573.792969 727.617188 571.691406 726.128906 569.410156 C 725.746094 568.753906 725.253906 568.191406 724.65625 567.71875 C 725.605469 565.390625 726.148438 562.96875 726.285156 560.457031 C 726.476562 557.964844 726.207031 555.527344 725.472656 553.136719 C 724.421875 550.332031 722.582031 550.699219 721.804688 552.992188 C 721.398438 554.164062 721.0625 556.757812 720.121094 559.789062 C 719.105469 563.019531 717.75 566.097656 716.054688 569.027344 C 714.425781 571.800781 711.46875 574.339844 708.289062 576.605469 C 705.109375 578.875 701.578125 580.796875 698.839844 583.152344 C 693.074219 587.691406 689 588.367188 681.476562 592.269531 C 679.148438 593.398438 676.769531 594.40625 674.335938 595.285156 C 672.992188 595.796875 672.328125 596.464844 670.675781 597.675781 C 667.359375 600.367188 661.886719 599.898438 658.015625 599.53125 C 647.378906 598.71875 638.667969 593.765625 634.886719 591.269531 C 630.902344 588.910156 624.484375 583.609375 619.738281 579.199219 C 616 575.710938 612.921875 571.710938 610.5 567.207031 C 607.789062 562.230469 606.433594 557.308594 606.058594 556.632812 C 604.121094 553.578125 601.382812 553.308594 599.105469 554.480469 C 598.050781 555.046875 597.144531 555.792969 596.382812 556.714844 C 595.617188 557.640625 595.058594 558.671875 594.699219 559.8125 C 594.339844 562.289062 594.425781 564.746094 594.957031 567.191406 C 594.648438 567.824219 594.324219 568.476562 593.964844 569.140625 C 592.121094 572.714844 589.921875 576.058594 587.371094 579.167969 C 584.988281 582.089844 581.238281 584.617188 577.140625 586.667969 C 573.042969 588.714844 568.730469 590.527344 564.941406 592.652344 C 561.625 594.433594 558.148438 595.804688 554.507812 596.765625 C 551.125 597.773438 547.523438 598.757812 542.5625 600.417969 C 532.578125 603.566406 532.949219 602.664062 528.738281 605.230469 C 524.527344 607.800781 518.050781 607.160156 513.382812 606.605469 C 500.730469 605.371094 489.890625 600.207031 485.449219 597.3125 C 480.773438 594.691406 473.105469 588.570312 467.949219 582.957031 C 463.828125 578.636719 460.652344 573.703125 458.429688 568.15625 C 455.867188 562.042969 455.523438 556.15625 455.125 555.277344 C 453.832031 551.414062 451.199219 550.511719 448.734375 551.390625 C 447.21875 551.980469 445.945312 552.898438 444.914062 554.152344 C 444.359375 554.359375 443.878906 554.675781 443.472656 555.105469 C 441.714844 557.113281 437.242188 564.96875 433.007812 569.996094 C 428.835938 575.234375 419.996094 578.234375 413.9375 582.195312 C 407.675781 586.257812 403.460938 586.480469 395.527344 589.96875 C 387.34375 593.140625 387.597656 592.269531 384.222656 594.847656 C 382.507812 596.132812 380.222656 596.472656 377.929688 596.78125 C 375.703125 596.816406 373.484375 596.726562 371.269531 596.515625 C 366.273438 596.011719 361.394531 594.96875 356.628906 593.390625 C 353.308594 592.257812 350.078125 590.902344 346.945312 589.324219 C 342.625 587.308594 335.292969 582.886719 329.71875 579.25 C 325.386719 576.332031 321.527344 572.882812 318.148438 568.898438 C 314.390625 564.480469 311.839844 559.953125 311.277344 559.316406 C 308.609375 556.757812 305.902344 557.210938 303.957031 558.925781 C 303.085938 559.738281 302.394531 560.683594 301.882812 561.757812 C 301.371094 562.835938 301.078125 563.96875 300.996094 565.15625 C 301.207031 567.269531 301.699219 569.3125 302.476562 571.289062 C 303.246094 573.039062 304.183594 574.699219 305.285156 576.265625 C 307.414062 579.234375 309.835938 581.46875 311.699219 583.707031 C 315.5625 588.179688 322.003906 589.984375 325.167969 592.089844 C 328.328125 594.195312 331.714844 594.726562 334.746094 597.171875 C 337.113281 598.886719 339.644531 600.304688 342.339844 601.425781 C 344.945312 602.648438 347.683594 603.390625 350.546875 603.652344 C 352.417969 603.652344 355.726562 603.914062 358.566406 603.914062 C 359.972656 603.988281 361.28125 603.914062 362.226562 603.914062 L 363.753906 603.914062 C 363.753906 603.914062 365.289062 603.914062 367.160156 603.71875 C 368.984375 603.585938 370.808594 603.558594 372.632812 603.636719 C 375.429688 603.847656 378.855469 604.238281 381.253906 604.320312 C 383.636719 604.742188 392.90625 604.558594 397.8125 603.027344 C 399.015625 602.613281 400.886719 601.832031 403.0625 600.890625 C 405.242188 599.945312 407.625 598.554688 409.992188 597.277344 C 414.644531 594.523438 418.808594 591.375 420.492188 590.277344 L 425.160156 586.878906 C 427.175781 585.300781 429.519531 583.363281 431.730469 581.316406 C 433.816406 579.386719 435.796875 577.359375 437.675781 575.222656 C 438.9375 573.890625 440.117188 572.488281 441.21875 571.019531 C 441.976562 570.097656 442.613281 569.097656 443.132812 568.019531 C 443.335938 569.011719 443.570312 569.980469 443.839844 570.90625 C 445.109375 574.605469 446.675781 578.175781 448.53125 581.617188 C 451.53125 588 458.167969 592.066406 461.363281 595.179688 C 464.617188 598.433594 468.195312 599.847656 471.421875 603.078125 C 473.941406 605.457031 476.738281 607.445312 479.816406 609.039062 C 482.757812 610.722656 485.898438 611.855469 489.242188 612.4375 C 491.386719 612.707031 495.234375 613.203125 498.511719 613.421875 C 501.789062 613.640625 504.527344 613.699219 504.527344 613.699219 L 508.480469 613.699219 C 510.660156 613.632812 513.214844 613.65625 514.832031 613.785156 C 518.085938 614.183594 522.027344 614.484375 524.792969 614.707031 C 527.519531 615.070312 538.179688 615.234375 543.832031 613.664062 C 548.800781 612.234375 553.609375 610.394531 558.265625 608.144531 C 562.65625 606.023438 566.917969 603.675781 571.058594 601.101562 C 575.941406 598.332031 580.535156 595.140625 584.832031 591.53125 C 589.074219 587.957031 592.828125 583.933594 596.097656 579.453125 C 596.972656 578.28125 597.691406 577.023438 598.25 575.671875 L 598.324219 575.5 C 599.347656 577.289062 600.414062 578.910156 601.269531 580.476562 C 604.1875 585.746094 610.375 588.609375 613.140625 591.21875 C 616.070312 593.863281 619.234375 594.871094 621.964844 597.675781 C 622.894531 598.570312 623.867188 599.417969 624.882812 600.214844 C 626.136719 601.085938 627.574219 602.019531 629.039062 602.90625 C 632.046875 604.53125 635.226562 605.761719 637.171875 605.890625 C 639.035156 606.152344 642.410156 606.5 645.253906 606.703125 L 648.949219 606.859375 C 649.898438 606.859375 650.492188 606.859375 650.492188 606.859375 L 653.917969 606.769531 C 655.746094 606.617188 657.574219 606.597656 659.40625 606.710938 L 663.886719 607.070312 L 668.074219 607.28125 C 670.535156 607.398438 672.996094 607.339844 675.449219 607.101562 C 678.59375 606.835938 681.65625 606.195312 684.640625 605.175781 C 688.8125 603.386719 692.738281 601.164062 696.414062 598.5 C 699.820312 596.019531 703.074219 593.351562 706.171875 590.496094 C 709.84375 587.378906 713.226562 583.972656 716.320312 580.28125 C 718.691406 577.476562 720.8125 574.496094 722.691406 571.335938 C 723.5 574.667969 724.953125 577.6875 727.046875 580.394531 C 730.082031 584.363281 733.75 587.617188 738.050781 590.15625 C 741.875 592.464844 746.183594 595.390625 751.0625 597.824219 C 755.84375 600.332031 760.890625 602.082031 766.195312 603.078125 C 771.261719 603.890625 775.140625 604.703125 779.460938 605.289062 C 784.6875 606.046875 789.886719 605.863281 795.050781 604.742188 C 801.554688 603.214844 804.554688 601.769531 806.539062 600.757812 C 808.523438 599.75 809.523438 598.78125 811.507812 596.621094 C 815.332031 592.269531 821.429688 588.300781 825.332031 584.03125 C 829.660156 579.484375 833.257812 574.414062 836.121094 568.828125 C 838.988281 563.242188 841.003906 557.363281 842.175781 551.195312 C 843.695312 544.199219 843.613281 530.546875 839.613281 520.976562 C 836.851562 513.472656 833.058594 506.535156 828.226562 500.164062 C 824.8125 495.609375 820.800781 491.65625 816.191406 488.308594 C 818.972656 486.503906 821.015625 484.105469 822.941406 482.519531 C 826.519531 479.550781 827.570312 474.183594 829.246094 471.75 C 830.917969 469.320312 831.210938 466.570312 833.3125 464.359375 C 835.410156 462.148438 839.175781 455.414062 839.117188 452.460938 C 839.34375 448.722656 839.75 442.238281 839.75 442.238281 C 839.75 442.238281 839.800781 440.953125 839.847656 439.613281 C 839.882812 438.207031 840.050781 436.816406 840.351562 435.441406 C 840.972656 433.375 841.777344 430.847656 842.378906 429.089844 C 842.980469 427.332031 845.078125 420.527344 844.941406 416.65625 C 844.707031 413.199219 844.179688 409.789062 843.355469 406.425781 C 842.433594 402.359375 841.101562 398.496094 840.703125 396.992188 C 839.757812 393.34375 838.53125 389.792969 837.019531 386.339844 C 835.488281 382.933594 833.632812 379.710938 831.457031 376.679688 C 830.414062 375.394531 829.195312 374.308594 827.796875 373.425781 C 836.148438 372.433594 840.808594 366.683594 844.875 363.359375 C 849.308594 359.886719 851.023438 353.597656 853.226562 350.71875 C 855.375 347.65625 856 344.546875 858.457031 341.726562 C 860.910156 338.90625 865.515625 330.59375 865.441406 326.871094 C 865.601562 324.722656 865.839844 321.695312 866.035156 319.167969 C 866.097656 316.378906 866.148438 314.160156 866.148438 314.160156 C 866.148438 314.160156 866.148438 312.679688 866.066406 310.90625 C 865.984375 309.132812 866.066406 306.976562 866.15625 305.628906 C 866.578125 302.9375 866.816406 299.632812 867.089844 297.300781 C 867.3125 294.894531 867.390625 292.480469 867.320312 290.0625 Z M 867.320312 290.0625 " fill-opacity="1" fill-rule="nonzero"/></g><path fill="#d93d76" d="M 94.148438 60.792969 C 93.578125 60.046875 90.261719 58.605469 89.742188 58.054688 C 89.222656 57.5 86.722656 54.582031 86.269531 53.988281 C 85.8125 53.394531 83.15625 53.46875 81.984375 53.695312 C 81.359375 53.835938 80.789062 54.101562 80.28125 54.488281 C 79.769531 54.878906 79.363281 55.355469 79.0625 55.921875 C 78.78125 56.808594 80.277344 58.019531 81.324219 58.890625 C 82.375 59.761719 80.65625 63.316406 81.730469 64.46875 C 82.804688 65.625 81.96875 67.300781 83.585938 68.414062 C 85.203125 69.527344 84.789062 69.730469 86.734375 69.226562 C 88.675781 68.722656 88.609375 70.179688 88.839844 71.058594 C 89.441406 73.414062 89.734375 75.9375 89.984375 76.992188 C 90.238281 78.050781 90.90625 79.945312 92.277344 80.742188 C 93.652344 81.539062 96.6875 84.515625 97.425781 84.394531 C 100.679688 83.847656 106.078125 78.164062 106.632812 77.132812 C 108.257812 73.984375 106.128906 74.023438 105.753906 73.066406 C 105.378906 72.105469 102.65625 72.773438 102.175781 72.253906 C 101.695312 71.730469 100.371094 72.007812 100.550781 70.984375 C 100.726562 69.960938 100.132812 68.160156 99.003906 68.195312 C 97.914062 68.113281 96.847656 67.90625 95.808594 67.566406 C 95.808594 67.566406 94.351562 67.234375 94.269531 66.625 C 94.179688 65.9375 94.179688 65.246094 94.269531 64.558594 C 94.402344 63.902344 94.710938 61.535156 94.148438 60.792969 Z M 94.148438 60.792969 " fill-opacity="1" fill-rule="nonzero"/><path fill="#d93d76" d="M 784.078125 58.792969 C 783.460938 59.027344 782.824219 59.171875 782.167969 59.234375 C 781.558594 59.289062 779.289062 59.542969 778.785156 60.234375 C 778.28125 60.925781 777.972656 64.300781 777.636719 64.894531 C 777.304688 65.488281 775.394531 68.453125 774.988281 69.007812 C 774.582031 69.5625 775.476562 71.984375 776.050781 73.015625 C 776.742188 74.148438 777.726562 74.871094 779.011719 75.1875 C 779.921875 75.246094 780.566406 73.5625 781.039062 72.429688 C 781.507812 71.300781 785.316406 72.03125 786.039062 70.804688 C 786.761719 69.578125 788.566406 69.992188 789.082031 68.210938 C 789.59375 66.429688 789.894531 66.804688 788.878906 65.128906 C 787.859375 63.453125 789.160156 63.183594 789.902344 62.777344 C 791.871094 61.695312 794.074219 60.859375 794.992188 60.339844 C 795.910156 59.816406 797.433594 58.816406 797.726562 57.378906 C 798.015625 55.9375 799.816406 52.5 799.472656 51.824219 C 797.96875 49.003906 791.039062 45.320312 789.917969 45.027344 C 786.503906 44.210938 787.21875 46.1875 786.421875 46.765625 C 785.625 47.34375 787.121094 49.675781 786.777344 50.238281 C 786.4375 50.800781 787.121094 51.945312 786.121094 52.019531 C 785.121094 52.09375 783.679688 53.035156 784.039062 54.078125 C 784.308594 55.085938 784.449219 56.109375 784.46875 57.152344 C 784.46875 57.152344 784.617188 58.582031 784.078125 58.792969 Z M 784.078125 58.792969 " fill-opacity="1" fill-rule="nonzero"/><path fill="#d93d76" d="M 766.570312 539.441406 C 766.511719 540.394531 768.3125 541.3125 769.578125 542.011719 C 770.847656 542.710938 769.945312 546.589844 771.261719 547.566406 C 772.582031 548.542969 772.074219 550.371094 773.945312 551.242188 C 775.816406 552.113281 775.410156 552.390625 777.28125 551.625 C 779.152344 550.859375 779.371094 552.324219 779.71875 553.203125 C 780.769531 555.511719 781.476562 558.007812 781.90625 559.089844 C 782.339844 560.171875 783.296875 561.976562 784.800781 562.644531 C 786.308594 563.3125 789.789062 566.082031 790.496094 565.898438 C 793.691406 565.082031 798.503906 558.871094 798.910156 557.765625 C 800.15625 554.367188 797.902344 554.511719 797.351562 553.527344 C 796.796875 552.542969 794.097656 553.453125 793.519531 552.941406 C 792.941406 552.429688 791.625 552.851562 791.617188 551.761719 C 791.609375 550.671875 790.664062 548.875 789.511719 549.023438 C 788.367188 549.050781 787.234375 548.953125 786.113281 548.730469 C 786.113281 548.730469 784.550781 548.550781 784.355469 547.917969 C 784.136719 547.222656 784.003906 546.511719 783.957031 545.785156 C 783.957031 545.121094 783.730469 542.640625 782.980469 541.941406 C 782.234375 541.242188 778.5 540.238281 777.839844 539.761719 L 773.296875 536.164062 C 772.667969 535.621094 769.992188 536.164062 768.871094 536.636719 C 768.292969 536.90625 767.804688 537.285156 767.398438 537.777344 C 766.996094 538.269531 766.71875 538.824219 766.570312 539.441406 Z M 766.570312 539.441406 " fill-opacity="1" fill-rule="nonzero"/><path fill="#d93d76" d="M 94.109375 549.617188 C 95.546875 548.902344 97.023438 548.273438 98.53125 547.722656 C 99.34375 547.363281 100.605469 546.609375 100.734375 545.386719 C 100.867188 544.167969 102.273438 541.371094 101.929688 540.761719 C 100.410156 538.050781 93.839844 533.824219 92.726562 533.507812 C 89.417969 532.449219 90.109375 534.417969 89.351562 534.914062 C 88.59375 535.410156 90.117188 537.703125 89.824219 538.167969 C 89.53125 538.628906 90.246094 539.792969 89.292969 539.792969 C 88.34375 539.792969 86.984375 540.71875 87.449219 541.695312 C 87.792969 542.617188 88.03125 543.566406 88.171875 544.542969 C 88.171875 544.542969 88.488281 545.835938 88 546.039062 C 87.429688 546.261719 86.835938 546.417969 86.226562 546.5 C 85.652344 546.566406 83.496094 546.933594 83.105469 547.617188 C 82.714844 548.300781 83.03125 551.4375 82.828125 552.007812 L 81.203125 556.074219 C 80.933594 556.632812 82.40625 558.660156 83.226562 559.464844 C 84.183594 560.34375 85.308594 560.828125 86.601562 560.921875 C 87.414062 560.855469 87.609375 559.382812 87.765625 558.335938 C 87.921875 557.285156 91.675781 557.617188 92.058594 556.535156 C 92.441406 555.457031 94.222656 555.722656 94.34375 554.226562 C 94.464844 552.730469 94.839844 553.03125 93.53125 551.59375 C 92.222656 550.152344 93.480469 549.957031 94.109375 549.617188 Z M 94.109375 549.617188 " fill-opacity="1" fill-rule="nonzero"/></g></g></g></g><g mask="url(#3552455bba)"><g transform="matrix(1, 0, 0, 1, 267, 407)"><g clip-path="url(#a65db1fa5d)"><g clip-path="url(#07b1bf8df1)"><path fill="#d93d76" d="M 61.339844 27.019531 C 62.542969 24.417969 64.75 23.074219 67 21.90625 C 69.5625 20.574219 72.210938 19.363281 74.925781 18.382812 C 81.242188 16.105469 87.578125 13.871094 93.976562 11.84375 C 104.8125 8.414062 115.816406 5.679688 127.191406 4.699219 C 134.804688 4.042969 142.429688 3.441406 150.023438 2.605469 C 159.015625 1.613281 168.035156 1.183594 177.0625 0.8125 C 182.742188 0.578125 188.402344 0.867188 194.050781 1.496094 C 195.65625 1.675781 197.289062 1.808594 198.898438 1.730469 C 202.753906 1.535156 206.53125 2.019531 210.292969 2.742188 C 216.207031 3.882812 222.140625 4.929688 228.027344 6.195312 C 231.757812 6.996094 235.4375 8.050781 239.109375 9.113281 C 246.558594 11.269531 253.976562 13.542969 261.429688 15.703125 C 269.210938 17.953125 277.066406 19.972656 284.796875 22.394531 C 289.535156 23.878906 294.144531 25.824219 298.734375 27.75 C 305.25 30.480469 311.679688 33.40625 318.167969 36.199219 C 320.0625 37.015625 322.03125 37.054688 324.089844 37.632812 C 325.535156 38.039062 325.289062 39.648438 324.457031 40.703125 C 323.101562 42.425781 321.691406 44.105469 320.242188 45.753906 C 319.878906 46.167969 319.300781 46.417969 318.785156 46.667969 C 313.875 49.042969 308.855469 51.140625 303.554688 52.488281 C 302.324219 52.800781 301.070312 53.128906 299.808594 53.222656 C 296.066406 53.507812 292.546875 54.617188 289.042969 55.84375 C 283.902344 57.648438 278.738281 59.441406 273.261719 59.855469 C 268.648438 60.203125 264.019531 60.417969 259.390625 60.523438 C 255.226562 60.621094 251.050781 60.515625 246.882812 60.464844 C 238.878906 60.375 230.90625 60.015625 223.019531 58.460938 C 213.230469 56.535156 203.324219 55.515625 193.386719 54.679688 C 186.347656 54.085938 179.335938 53.183594 172.320312 52.34375 C 164.613281 51.417969 156.917969 50.429688 149.222656 49.421875 C 145.433594 48.925781 141.667969 48.1875 137.871094 47.804688 C 132.804688 47.292969 127.71875 46.9375 122.632812 46.65625 C 114.074219 46.183594 105.507812 45.882812 96.949219 45.394531 C 92.296875 45.132812 87.785156 44.058594 83.414062 42.4375 C 80.445312 41.339844 77.398438 40.769531 74.21875 41 C 73.53125 41.050781 72.777344 41.132812 72.15625 40.917969 C 70.183594 40.234375 68.296875 40.558594 66.351562 41.03125 C 62.628906 41.9375 58.835938 42.351562 55.011719 42.585938 C 48.382812 42.988281 41.957031 44.515625 35.660156 46.535156 C 31.472656 47.875 27.359375 49.449219 23.207031 50.90625 C 21.460938 51.519531 19.714844 52.140625 17.949219 52.691406 C 13.136719 54.191406 8.636719 56.210938 5.140625 60.027344 C 4.164062 61.09375 2.988281 61.789062 1.429688 61.238281 C 0.753906 60.996094 0.289062 60.335938 0.476562 59.628906 C 0.59375 59.195312 0.792969 58.773438 1.015625 58.378906 C 5.339844 50.722656 7.519531 42.296875 9.65625 33.871094 C 10.367188 31.070312 10.726562 28.179688 11.328125 25.347656 C 11.941406 22.460938 11.804688 19.554688 11.441406 16.6875 C 11.199219 14.765625 10.460938 12.894531 9.839844 11.035156 C 9.445312 9.847656 9.453125 8.78125 10.179688 7.742188 C 10.933594 6.667969 12.519531 6.351562 13.550781 7.148438 C 14.097656 7.566406 14.539062 8.121094 15.039062 8.605469 C 24.492188 17.753906 35.660156 23.394531 48.746094 25.117188 C 51.957031 25.539062 55.167969 25.960938 58.375 26.414062 C 59.28125 26.539062 60.171875 26.777344 61.339844 27.019531 Z M 15.027344 14.84375 C 15.125 16.773438 15.40625 18.398438 15.25 19.980469 C 14.839844 24.246094 14.339844 28.507812 13.695312 32.742188 C 12.835938 38.378906 11.054688 43.777344 9.09375 49.117188 C 8.871094 49.722656 8.320312 50.320312 9.015625 51.082031 C 9.410156 50.976562 9.855469 50.890625 10.277344 50.738281 C 18.425781 47.75 26.417969 44.335938 34.726562 41.785156 C 39.714844 40.257812 44.71875 38.792969 49.910156 38.175781 C 54.28125 37.65625 58.664062 37.277344 63.042969 36.835938 C 66.132812 36.527344 69.210938 35.660156 72.324219 36.664062 C 72.527344 36.730469 72.78125 36.632812 73.011719 36.613281 C 76.539062 36.304688 80.039062 36.8125 83.253906 38.054688 C 89.75 40.570312 96.589844 40.898438 103.34375 41.679688 C 107.574219 42.171875 111.875 42.035156 116.144531 42.191406 C 119.269531 42.304688 122.414062 42.242188 125.511719 42.59375 C 135.054688 43.675781 144.617188 44.5625 154.101562 46.203125 C 160.484375 47.308594 166.96875 47.839844 173.417969 48.535156 C 181.019531 49.355469 188.636719 50.035156 196.234375 50.851562 C 200.375 51.296875 204.5 51.863281 208.625 52.445312 C 216.308594 53.53125 223.976562 54.738281 231.667969 55.746094 C 234.292969 56.089844 236.992188 55.863281 239.632812 56.113281 C 247.5 56.859375 255.375 56.765625 263.253906 56.605469 C 263.648438 56.597656 264.035156 56.335938 264.707031 56.089844 C 263.347656 54.476562 262.363281 52.824219 260.941406 51.746094 C 258.726562 50.0625 257.382812 47.800781 256.058594 45.515625 C 254.847656 43.425781 253.882812 41.1875 252.800781 38.996094 C 250.914062 39.074219 246.679688 40.839844 235.691406 31.226562 C 235.125 30.730469 234.824219 29.988281 234.890625 29.238281 C 235 28 234.996094 27.136719 236.292969 27.117188 C 238.738281 27.085938 240.730469 29.539062 242.542969 31.246094 C 245.332031 33.871094 248.644531 34.234375 252.203125 34.648438 C 253.003906 31.796875 252.894531 28.992188 253.332031 26.269531 C 253.765625 23.570312 254.800781 20.980469 255.03125 18.152344 C 254.113281 17.804688 253.375 17.480469 252.613281 17.25 C 246.410156 15.34375 240.238281 13.339844 233.988281 11.617188 C 230.535156 10.664062 226.945312 10.21875 223.425781 9.507812 C 222.035156 9.226562 220.917969 9.566406 220.046875 10.703125 C 219.773438 11.054688 219.464844 11.378906 219.203125 11.679688 C 218.039062 11.683594 216.996094 11.738281 215.960938 11.671875 C 214.585938 11.589844 213.472656 12.078125 212.519531 13.019531 C 212.105469 13.425781 211.65625 13.800781 211.277344 14.238281 C 207.820312 18.195312 198.320312 18.3125 195 14.585938 C 194.582031 14.113281 193.964844 13.816406 193.394531 13.402344 C 192.847656 14.007812 192.46875 14.441406 192.070312 14.855469 C 187.859375 19.257812 182.289062 19.277344 178.058594 14.925781 C 177.539062 14.394531 176.960938 13.921875 176.34375 13.359375 C 174.980469 15.261719 173.800781 16.980469 172.542969 18.636719 C 171.636719 19.832031 170.660156 21.058594 169.144531 21.457031 C 167.472656 21.890625 165.777344 22.144531 163.996094 21.828125 C 161.441406 21.367188 159.125 20.375 156.886719 19.125 C 156.003906 18.628906 155.109375 18.144531 154.105469 17.59375 C 153.246094 18.609375 152.519531 19.496094 151.761719 20.359375 C 150.507812 21.789062 149.015625 22.890625 147.066406 23.039062 C 143.386719 23.320312 139.921875 22.652344 136.867188 20.414062 C 136.230469 19.945312 135.527344 19.574219 134.632812 19.027344 C 134.300781 19.476562 133.960938 19.816406 133.765625 20.222656 C 132.648438 22.609375 130.496094 23.410156 128.15625 23.773438 C 126.800781 23.980469 125.390625 23.878906 124.003906 23.847656 C 122.972656 23.824219 121.941406 23.6875 120.929688 23.601562 C 117.589844 27.386719 113.445312 28.570312 108.660156 27.816406 C 107.632812 27.652344 106.617188 27.386719 105.582031 27.269531 C 104.804688 27.183594 104.011719 27.253906 103.300781 27.257812 C 102.722656 28.046875 102.230469 28.6875 101.765625 29.351562 C 99.269531 32.929688 93.480469 33.542969 90.6875 31.203125 C 89.261719 30.011719 87.738281 28.949219 86.058594 28.160156 C 83.804688 27.09375 83.449219 25.515625 84.019531 23.460938 C 84.578125 23.398438 85.035156 23.25 85.453125 23.3125 C 86.96875 23.546875 88.289062 24.210938 89.535156 25.125 C 90.742188 26.007812 92.058594 26.753906 93.367188 27.484375 C 94.167969 27.933594 94.992188 27.699219 95.597656 27.082031 C 96.070312 26.597656 96.617188 26.007812 96.738281 25.390625 C 97.160156 23.234375 98.449219 21.917969 100.425781 21.105469 C 102.496094 21.058594 104.523438 21.425781 106.476562 22.246094 C 107.203125 22.550781 107.949219 22.8125 108.722656 22.976562 C 111.390625 23.535156 112.355469 22.929688 113.28125 20.191406 C 114.050781 17.910156 116.070312 16.644531 118.382812 17.183594 C 119.597656 17.46875 120.796875 17.960938 121.914062 18.53125 C 124.328125 19.773438 126.621094 19.679688 128.753906 18.023438 C 130.121094 16.964844 131.347656 15.726562 132.652344 14.585938 C 133.496094 13.851562 134.074219 12.71875 135.296875 12.667969 C 137.125 13.554688 138.226562 15.054688 139.40625 16.480469 C 141.085938 18.511719 143.292969 19.351562 145.871094 19.226562 C 148.09375 19.117188 149.902344 18.230469 150.957031 16.144531 C 151.21875 15.628906 151.410156 15.066406 151.726562 14.585938 C 152.859375 12.859375 154.324219 12.433594 156.1875 13.394531 C 157.308594 13.976562 158.339844 14.746094 159.386719 15.46875 C 161.21875 16.738281 163.167969 17.695312 165.410156 18.007812 C 168.496094 18.441406 170.867188 17.386719 172.476562 14.699219 C 173.191406 13.507812 173.820312 12.261719 174.558594 11.085938 C 175.726562 9.210938 177.546875 8.914062 179.238281 10.359375 C 180.023438 11.03125 180.644531 11.890625 181.371094 12.636719 C 183.777344 15.089844 187.277344 15.195312 189.746094 12.824219 C 190.488281 12.113281 191.167969 11.269531 191.648438 10.367188 C 192.371094 9.011719 193.453125 8.734375 194.832031 8.800781 C 196.140625 8.867188 196.941406 9.605469 197.609375 10.613281 C 199.046875 12.777344 201.179688 13.394531 203.636719 13.375 C 207.75 13.339844 210.617188 11.855469 213.917969 7.941406 C 213.605469 7.792969 213.332031 7.605469 213.027344 7.527344 C 208.96875 6.496094 204.832031 6.082031 200.65625 5.859375 C 192.445312 5.429688 184.25 4.59375 176.011719 5.066406 C 167.6875 5.546875 159.363281 6.015625 151.042969 6.585938 C 146.308594 6.914062 141.585938 7.425781 136.859375 7.863281 C 128.796875 8.609375 120.664062 8.816406 112.789062 11.042969 C 110.011719 11.828125 107.140625 12.285156 104.386719 13.132812 C 98.855469 14.832031 93.335938 16.589844 87.886719 18.523438 C 81.996094 20.617188 76.179688 22.914062 70.347656 25.167969 C 67.878906 26.117188 65.457031 27.183594 63.007812 28.195312 C 62.851562 28.96875 62.695312 29.734375 62.507812 30.652344 C 59.066406 31.195312 55.761719 30.300781 52.457031 30.085938 C 49.003906 29.855469 45.546875 29.265625 42.175781 28.46875 C 38.921875 27.699219 35.757812 26.519531 32.589844 25.421875 C 29.289062 24.277344 26.296875 22.492188 23.378906 20.605469 C 20.609375 18.816406 17.941406 16.867188 15.027344 14.84375 Z M 258.746094 19.195312 C 257.183594 23.941406 256.976562 28.457031 256.734375 32.96875 C 256.484375 37.6875 257.65625 41.925781 260.898438 45.476562 C 261.054688 45.648438 261.1875 45.839844 261.320312 46.03125 C 263.480469 49.15625 266.148438 51.941406 267.550781 55.777344 C 271.90625 55.550781 276.097656 55.128906 280.179688 53.648438 C 284.53125 52.070312 288.945312 50.660156 293.375 49.328125 C 295.46875 48.699219 297.71875 48.585938 299.8125 47.960938 C 305.148438 46.371094 317.351562 41.261719 317.277344 40.234375 C 317.210938 39.308594 302.957031 33.75 296.707031 30.984375 C 292.46875 29.105469 288.183594 27.351562 283.714844 26.082031 C 276.140625 23.9375 268.558594 21.796875 260.976562 19.664062 C 260.332031 19.484375 259.664062 19.386719 258.746094 19.195312 Z M 258.746094 19.195312 " fill-opacity="1" fill-rule="nonzero"/></g><path fill="#d93d76" d="M 195.835938 30.707031 C 190.765625 36.921875 184.101562 36.246094 179.324219 33.363281 C 178.339844 32.769531 177.472656 31.980469 176.550781 31.285156 C 175.410156 30.425781 174.441406 30.570312 174.179688 31.886719 C 173.652344 34.523438 171.480469 35.535156 169.648438 36.859375 C 167.882812 38.140625 165.804688 38.445312 163.671875 38.167969 C 160.757812 37.785156 158.039062 36.835938 155.617188 35.128906 C 154.488281 34.335938 153.371094 33.527344 151.917969 32.492188 C 151.1875 33.390625 150.601562 34.261719 149.863281 34.980469 C 147.929688 36.859375 145.605469 37.679688 142.890625 37.429688 C 138.257812 37.003906 134.058594 35.636719 130.734375 32.175781 C 129.703125 31.101562 128.574219 30.121094 127.402344 29.011719 C 128.125 27.773438 128.8125 26.777344 129.847656 26.007812 C 131.339844 26.230469 132.527344 26.898438 133.566406 27.855469 C 134.421875 28.636719 135.261719 29.4375 136.066406 30.269531 C 137.3125 31.558594 138.808594 32.367188 140.527344 32.832031 C 144.253906 33.84375 146.15625 33.179688 148.078125 29.8125 C 148.914062 28.34375 149.90625 27.164062 151.359375 26.351562 C 151.554688 26.242188 151.796875 26.21875 152.132812 26.121094 C 153.945312 26.75 155.542969 27.757812 156.761719 29.433594 C 158.15625 31.355469 160.046875 32.699219 162.335938 33.402344 C 165.015625 34.222656 167.390625 33.757812 169.242188 31.535156 C 171.175781 29.207031 173.195312 26.996094 176.144531 25.65625 C 178.230469 26.484375 180.1875 27.585938 181.941406 29.175781 C 184.664062 31.640625 188.21875 31.628906 191.117188 29.328125 C 191.753906 28.828125 192.308594 28.226562 192.894531 27.664062 C 193.3125 27.269531 193.683594 26.804688 194.148438 26.476562 C 194.804688 26.011719 195.53125 25.648438 196.363281 25.164062 C 197.78125 25.5625 199.121094 26.160156 200.117188 27.378906 C 201.976562 29.648438 204.289062 29.59375 206.730469 28.628906 C 208.699219 27.851562 210.363281 26.601562 211.78125 25.023438 C 212.402344 24.332031 212.957031 23.578125 213.636719 22.957031 C 213.910156 22.707031 214.492188 22.582031 214.855469 22.679688 C 215.511719 22.859375 215.632812 23.496094 215.511719 24.101562 C 214.777344 27.808594 212.921875 30.65625 209.453125 32.4375 C 205.84375 34.292969 202.335938 34.203125 198.804688 32.367188 C 197.792969 31.84375 196.808594 31.253906 195.835938 30.707031 Z M 195.835938 30.707031 " fill-opacity="1" fill-rule="nonzero"/><path fill="#d93d76" d="M 250.46875 44.480469 C 249.753906 44.867188 249.210938 45.160156 248.140625 45.734375 C 249.761719 45.804688 250.804688 45.738281 251.800781 45.917969 C 252.800781 46.101562 253.421875 46.757812 253.183594 48.070312 C 248.492188 50.464844 243.558594 52.199219 238.113281 52.039062 C 234.832031 51.941406 231.722656 51.0625 228.761719 49.714844 C 227.632812 49.199219 226.578125 48.402344 226.203125 47.046875 C 226.050781 46.503906 225.703125 45.964844 226.183594 45.433594 C 226.625 44.941406 227.148438 45.003906 227.753906 45.175781 C 232.6875 46.582031 237.707031 46.941406 242.796875 46.308594 C 242.847656 46.300781 242.886719 46.171875 243.027344 45.949219 C 241.417969 45.605469 239.855469 45.324219 238.316406 44.933594 C 234.449219 43.953125 230.871094 42.402344 228.183594 39.304688 C 227.757812 38.8125 227.527344 38.128906 227.289062 37.503906 C 227.148438 37.132812 227.8125 36.519531 228.15625 36.6875 C 228.980469 37.089844 229.847656 37.453125 230.570312 38 C 233.234375 40.023438 236.28125 40.953125 239.546875 41.300781 C 241.957031 41.554688 244.367188 41.867188 246.78125 41.996094 C 248.445312 42.089844 249.605469 42.75 250.46875 44.480469 Z M 250.46875 44.480469 " fill-opacity="1" fill-rule="nonzero"/><path fill="#d93d76" d="M 197.261719 35.296875 C 199.5 35.828125 201.023438 37.167969 202.3125 38.882812 C 203.140625 39.984375 204.09375 40.988281 205.125 42.191406 C 205.921875 41.738281 206.691406 41.464844 207.234375 40.953125 C 208.417969 39.847656 209.472656 38.605469 210.605469 37.445312 C 211.414062 36.617188 212.238281 35.800781 213.113281 35.050781 C 213.308594 34.882812 213.898438 34.859375 214.046875 35.015625 C 214.324219 35.3125 214.5 35.773438 214.542969 36.1875 C 214.578125 36.496094 214.40625 36.882812 214.207031 37.148438 C 212.34375 39.652344 210.460938 42.140625 208.574219 44.628906 C 207.734375 45.734375 206.636719 46.132812 205.234375 46.058594 C 203.195312 45.949219 201.363281 45.4375 199.832031 44.023438 C 199.164062 43.40625 198.453125 42.832031 197.589844 42.09375 C 197.023438 42.652344 196.574219 43.125 196.09375 43.566406 C 194.992188 44.582031 193.972656 45.714844 192.753906 46.5625 C 190.003906 48.472656 187.671875 48.429688 185.105469 46.394531 C 183.753906 45.324219 182.582031 44.011719 181.414062 42.726562 C 180.589844 41.824219 180.539062 40.644531 180.578125 39.527344 C 182.953125 37.609375 183.675781 37.613281 185.523438 39.5625 C 186.160156 40.234375 186.71875 40.980469 187.371094 41.640625 C 188.339844 42.621094 189.429688 42.820312 190.472656 41.988281 C 191.453125 41.207031 192.285156 40.21875 193.097656 39.25 C 194.28125 37.835938 195.257812 36.21875 197.261719 35.296875 Z M 197.261719 35.296875 " fill-opacity="1" fill-rule="nonzero"/><path fill="#d93d76" d="M 37.320312 34.933594 C 34.332031 35.289062 31.292969 35.632812 28.539062 34.054688 C 25.644531 32.394531 22.851562 30.558594 20.019531 28.789062 C 19.734375 28.609375 19.457031 28.378906 19.253906 28.109375 C 18.878906 27.613281 18.785156 27.046875 19.199219 26.527344 C 20.199219 25.28125 21.402344 24.875 22.871094 25.367188 C 23.738281 25.660156 24.585938 26.050781 25.386719 26.496094 C 26.59375 27.167969 27.824219 27.832031 28.921875 28.664062 C 31.132812 30.339844 33.632812 30.996094 36.34375 31.085938 C 37.496094 31.125 38.652344 31.140625 39.789062 31.296875 C 41.351562 31.421875 41.582031 34.4375 37.320312 34.933594 Z M 37.320312 34.933594 " fill-opacity="1" fill-rule="nonzero"/><path fill="#d93d76" d="M 30.417969 40.453125 C 29.867188 40.503906 29.339844 40.839844 28.8125 41.066406 C 25.253906 42.601562 21.855469 42.09375 18.566406 40.246094 C 17.867188 39.851562 17.179688 39.425781 16.515625 38.972656 C 15.683594 38.398438 15.375 37.539062 15.4375 36.566406 C 15.550781 34.71875 16.789062 33.902344 18.539062 34.519531 C 19.078125 34.707031 19.601562 34.96875 20.085938 35.273438 C 22.664062 36.90625 25.433594 37.136719 28.386719 36.664062 C 30.425781 36.339844 32.507812 36.011719 34.570312 36.152344 C 37.6875 36.371094 32.886719 40.242188 30.417969 40.453125 Z M 30.417969 40.453125 " fill-opacity="1" fill-rule="nonzero"/><path fill="#d93d76" d="M 267.160156 28.628906 C 268.550781 24.988281 272.425781 26.347656 274.160156 28.441406 C 275.183594 29.675781 275.957031 31.121094 276.777344 32.511719 C 276.996094 32.882812 277.097656 33.421875 277.03125 33.851562 C 276.660156 36.246094 276.308594 38.671875 274.722656 40.652344 C 273.195312 42.566406 270.460938 42.089844 269.496094 39.765625 C 267.582031 35.15625 265.070312 34.105469 267.160156 28.628906 Z M 271.097656 30.863281 C 268.851562 31.757812 270.308594 35.207031 272.257812 34.90625 C 274.371094 34.578125 273.511719 29.90625 271.097656 30.863281 Z M 271.097656 30.863281 " fill-opacity="1" fill-rule="nonzero"/></g></g></g><g fill="#d93d76" fill-opacity="1"><g transform="translate(186.361857, 397.587525)"><g><path d="M 12.53125 -145.140625 C 12.195312 -147.816406 11.820312 -150.40625 11.40625 -152.90625 C 10.988281 -155.414062 10.695312 -157.925781 10.53125 -160.4375 C 10.195312 -163.445312 10.15625 -166.625 10.40625 -169.96875 C 10.65625 -173.3125 11.320312 -176.484375 12.40625 -179.484375 C 13.488281 -182.492188 15.035156 -185.164062 17.046875 -187.5 C 19.054688 -189.84375 21.8125 -191.519531 25.3125 -192.53125 C 30.664062 -194.03125 36.097656 -193.816406 41.609375 -191.890625 C 47.128906 -189.972656 52.3125 -187.847656 57.15625 -185.515625 C 61.832031 -183.171875 66.425781 -180.660156 70.9375 -177.984375 C 75.457031 -175.304688 80.140625 -172.800781 84.984375 -170.46875 C 87.492188 -169.300781 90 -168.046875 92.5 -166.703125 C 95.007812 -165.367188 97.222656 -163.820312 99.140625 -162.0625 C 101.066406 -160.3125 102.65625 -158.222656 103.90625 -155.796875 C 105.164062 -153.378906 105.878906 -150.582031 106.046875 -147.40625 C 106.210938 -144.0625 105.664062 -140.800781 104.40625 -137.625 C 103.15625 -134.445312 101.863281 -131.359375 100.53125 -128.359375 C 93.007812 -111.640625 83.398438 -96.007812 71.703125 -81.46875 C 67.347656 -76.125 62.457031 -71.148438 57.03125 -66.546875 C 51.601562 -61.953125 45.460938 -58.988281 38.609375 -57.65625 C 40.109375 -48.132812 41.816406 -38.773438 43.734375 -29.578125 C 45.660156 -20.390625 47.878906 -11.113281 50.390625 -1.75 C 51.222656 1.425781 50.84375 4.054688 49.25 6.140625 C 47.664062 8.234375 45.703125 9.613281 43.359375 10.28125 C 41.023438 10.945312 38.601562 10.773438 36.09375 9.765625 C 33.59375 8.765625 31.921875 6.679688 31.078125 3.515625 C 25.734375 -16.878906 21.640625 -37.3125 18.796875 -57.78125 C 15.960938 -78.257812 14.125 -99.109375 13.28125 -120.328125 C 13.113281 -123.171875 13.03125 -125.925781 13.03125 -128.59375 C 13.03125 -131.269531 12.945312 -134.03125 12.78125 -136.875 C 12.78125 -138.039062 12.78125 -139.164062 12.78125 -140.25 C 12.78125 -141.34375 12.695312 -142.390625 12.53125 -143.390625 Z M 30.328125 -169.46875 C 30.160156 -165.789062 30.328125 -161.863281 30.828125 -157.6875 C 30.992188 -155.84375 31.117188 -154.671875 31.203125 -154.171875 C 31.285156 -153.671875 31.328125 -153.253906 31.328125 -152.921875 L 32.09375 -148.40625 C 32.59375 -143.394531 32.84375 -138.296875 32.84375 -133.109375 C 33.175781 -125.753906 33.46875 -118.441406 33.71875 -111.171875 C 33.96875 -103.910156 34.425781 -96.601562 35.09375 -89.25 C 35.257812 -87.238281 35.382812 -85.226562 35.46875 -83.21875 C 35.550781 -81.21875 35.757812 -79.300781 36.09375 -77.46875 C 37.769531 -77.96875 38.941406 -78.425781 39.609375 -78.84375 C 40.273438 -79.257812 40.941406 -79.632812 41.609375 -79.96875 C 42.617188 -80.632812 43.375 -81.21875 43.875 -81.71875 C 48.050781 -85.0625 51.554688 -88.40625 54.390625 -91.75 C 57.234375 -95.09375 59.910156 -98.519531 62.421875 -102.03125 C 67.929688 -109.71875 72.863281 -117.65625 77.21875 -125.84375 C 78.050781 -127.6875 78.882812 -129.398438 79.71875 -130.984375 C 80.550781 -132.566406 81.382812 -134.28125 82.21875 -136.125 C 82.5625 -136.957031 82.898438 -137.707031 83.234375 -138.375 C 83.566406 -139.039062 83.898438 -139.796875 84.234375 -140.640625 C 85.066406 -142.640625 85.648438 -144.3125 85.984375 -145.65625 C 85.984375 -146.820312 85.734375 -147.65625 85.234375 -148.15625 C 82.890625 -149.488281 81.132812 -150.40625 79.96875 -150.90625 C 75.125 -153.25 70.441406 -155.628906 65.921875 -158.046875 C 61.410156 -160.472656 56.734375 -163.023438 51.890625 -165.703125 C 49.546875 -167.035156 47.160156 -168.285156 44.734375 -169.453125 C 42.316406 -170.628906 39.773438 -171.632812 37.109375 -172.46875 C 36.597656 -172.632812 36.050781 -172.800781 35.46875 -172.96875 C 34.882812 -173.132812 34.34375 -173.21875 33.84375 -173.21875 C 32.675781 -173.382812 32.007812 -173.425781 31.84375 -173.34375 C 31.675781 -173.257812 31.503906 -173.21875 31.328125 -173.21875 C 30.992188 -172.71875 30.785156 -172.21875 30.703125 -171.71875 C 30.617188 -171.21875 30.492188 -170.800781 30.328125 -170.46875 Z M 30.328125 -169.46875 "/></g></g></g><g fill="#d93d76" fill-opacity="1"><g transform="translate(288.606212, 397.587525)"><g/></g></g><g fill="#d93d76" fill-opacity="1"><g transform="translate(368.046065, 397.587525)"><g><path d="M 93.5 -87.484375 C 96.675781 -87.484375 99.054688 -86.4375 100.640625 -84.34375 C 102.234375 -82.257812 103.03125 -79.960938 103.03125 -77.453125 C 103.03125 -74.953125 102.234375 -72.65625 100.640625 -70.5625 C 99.054688 -68.476562 96.675781 -67.4375 93.5 -67.4375 C 88.65625 -67.269531 83.722656 -67.269531 78.703125 -67.4375 C 73.691406 -67.601562 68.765625 -67.769531 63.921875 -67.9375 C 64.085938 -63.257812 64.210938 -58.660156 64.296875 -54.140625 C 64.378906 -49.628906 64.421875 -45.035156 64.421875 -40.359375 C 64.421875 -37.015625 63.375 -34.546875 61.28125 -32.953125 C 59.195312 -31.367188 56.898438 -30.578125 54.390625 -30.578125 C 51.890625 -30.578125 49.632812 -31.367188 47.625 -32.953125 C 45.625 -34.546875 44.625 -37.015625 44.625 -40.359375 C 44.625 -45.035156 44.539062 -49.671875 44.375 -54.265625 C 44.207031 -58.867188 44.039062 -63.507812 43.875 -68.1875 C 38.519531 -68.1875 33.296875 -68.019531 28.203125 -67.6875 C 23.109375 -67.351562 17.882812 -66.769531 12.53125 -65.9375 C 9.851562 -65.59375 7.34375 -65.960938 5 -67.046875 C 2.664062 -68.140625 1.082031 -70.109375 0.25 -72.953125 C -0.414062 -75.285156 -0.0820312 -77.789062 1.25 -80.46875 C 2.59375 -83.144531 4.597656 -84.734375 7.265625 -85.234375 C 13.453125 -86.234375 19.59375 -86.898438 25.6875 -87.234375 C 31.789062 -87.566406 38.019531 -87.816406 44.375 -87.984375 C 44.539062 -91.992188 44.789062 -96.046875 45.125 -100.140625 C 45.457031 -104.242188 45.789062 -108.382812 46.125 -112.5625 C 46.457031 -115.226562 47.5 -117.5625 49.25 -119.5625 C 51.007812 -121.570312 53.3125 -122.578125 56.15625 -122.578125 C 58.664062 -122.578125 61.046875 -121.570312 63.296875 -119.5625 C 65.554688 -117.5625 66.519531 -115.226562 66.1875 -112.5625 C 65.851562 -108.382812 65.515625 -104.242188 65.171875 -100.140625 C 64.835938 -96.046875 64.503906 -91.910156 64.171875 -87.734375 C 69.023438 -87.566406 73.914062 -87.441406 78.84375 -87.359375 C 83.769531 -87.273438 88.65625 -87.316406 93.5 -87.484375 Z M 93.5 -87.484375 "/></g></g></g><g fill="#d93d76" fill-opacity="1"><g transform="translate(475.051797, 397.587525)"><g/></g></g><g fill="#d93d76" fill-opacity="1"><g transform="translate(554.49165, 397.587525)"><g><path d="M 14.296875 -40.609375 C 10.273438 -50.304688 7.515625 -60.25 6.015625 -70.4375 C 5.179688 -76.289062 4.472656 -82.179688 3.890625 -88.109375 C 3.304688 -94.046875 3.847656 -99.941406 5.515625 -105.796875 C 6.347656 -109.472656 7.429688 -113.019531 8.765625 -116.4375 C 10.109375 -119.863281 11.445312 -123.332031 12.78125 -126.84375 C 13.789062 -129.519531 14.503906 -132.191406 14.921875 -134.859375 C 15.335938 -137.535156 15.960938 -140.296875 16.796875 -143.140625 C 18.460938 -149.160156 20.96875 -154.382812 24.3125 -158.8125 C 27.65625 -163.238281 32.085938 -166.875 37.609375 -169.71875 C 42.785156 -172.550781 48.128906 -174.800781 53.640625 -176.46875 C 59.160156 -178.144531 64.757812 -179.488281 70.4375 -180.5 C 75.625 -181.5 80.847656 -182.25 86.109375 -182.75 C 91.367188 -183.25 96.675781 -183.164062 102.03125 -182.5 C 104.875 -182.164062 107.253906 -181.160156 109.171875 -179.484375 C 111.097656 -177.816406 112.0625 -175.5625 112.0625 -172.71875 C 112.0625 -170.21875 111.097656 -167.835938 109.171875 -165.578125 C 107.253906 -163.316406 104.875 -162.359375 102.03125 -162.703125 C 101.53125 -162.703125 101.023438 -162.742188 100.515625 -162.828125 C 100.015625 -162.910156 99.515625 -162.953125 99.015625 -162.953125 C 94.003906 -163.285156 88.945312 -163.15625 83.84375 -162.5625 C 78.75 -161.976562 73.78125 -161.101562 68.9375 -159.9375 C 66.09375 -159.101562 63.25 -158.304688 60.40625 -157.546875 C 57.570312 -156.796875 54.816406 -155.835938 52.140625 -154.671875 C 50.304688 -153.835938 48.46875 -152.921875 46.625 -151.921875 C 45.289062 -151.242188 44.375 -150.65625 43.875 -150.15625 C 40.695312 -147.488281 38.601562 -144.984375 37.59375 -142.640625 C 36.59375 -140.296875 35.800781 -137.828125 35.21875 -135.234375 C 34.632812 -132.648438 34.09375 -130.019531 33.59375 -127.34375 C 33.09375 -124.675781 32.425781 -122.171875 31.59375 -119.828125 C 30.25 -116.484375 28.90625 -113.054688 27.5625 -109.546875 C 26.226562 -106.035156 25.144531 -102.441406 24.3125 -98.765625 C 23.8125 -96.265625 23.644531 -93.757812 23.8125 -91.25 C 23.976562 -88.738281 24.226562 -86.234375 24.5625 -83.734375 C 24.894531 -79.390625 25.4375 -74.875 26.1875 -70.1875 C 26.945312 -65.507812 27.992188 -61 29.328125 -56.65625 C 30.660156 -52.3125 32.457031 -48.175781 34.71875 -44.25 C 36.976562 -40.320312 39.78125 -36.851562 43.125 -33.84375 C 47.300781 -30.332031 52.0625 -27.78125 57.40625 -26.1875 C 62.75 -24.601562 68.097656 -23.476562 73.453125 -22.8125 C 80.140625 -21.8125 86.65625 -21.726562 93 -22.5625 C 99.351562 -23.394531 105.367188 -25.734375 111.046875 -29.578125 C 113.722656 -31.253906 116.269531 -31.628906 118.6875 -30.703125 C 121.113281 -29.785156 122.953125 -28.28125 124.203125 -26.1875 C 125.460938 -24.101562 125.96875 -21.679688 125.71875 -18.921875 C 125.46875 -16.171875 124.003906 -13.957031 121.328125 -12.28125 C 113.304688 -6.9375 104.738281 -3.800781 95.625 -2.875 C 86.519531 -1.957031 77.375 -2.171875 68.1875 -3.515625 C 62 -4.347656 55.976562 -5.640625 50.125 -7.390625 C 44.28125 -9.148438 38.851562 -11.953125 33.84375 -15.796875 C 25.15625 -22.140625 18.640625 -30.410156 14.296875 -40.609375 Z M 14.296875 -40.609375 "/></g></g></g><g mask="url(#8b55f8cfd2)"><g transform="matrix(1, 0, 0, 1, 378, 113)"><g clip-path="url(#03d47f71dc)"><g clip-path="url(#2ca6248987)"><path fill="#d93d76" d="M 51.683594 52.484375 L 51.597656 52.414062 C 48.734375 50.011719 45.859375 47.601562 42.585938 44.792969 C 39.296875 41.972656 35.46875 38.636719 32.515625 34.597656 C 29.558594 30.554688 27.355469 25.644531 28.078125 20.121094 C 28.777344 14.753906 32.261719 9.007812 35.484375 3.648438 C 35.871094 3.003906 36.675781 2.75 37.359375 3.058594 L 44.730469 6.347656 L 43.058594 6.671875 L 48.648438 0.90625 C 49.140625 0.394531 49.925781 0.308594 50.519531 0.695312 C 54.722656 3.421875 59.261719 6.34375 61.949219 9.917969 C 64.730469 13.609375 65.472656 17.855469 65.386719 22.648438 C 65.300781 27.429688 64.382812 33.007812 62.292969 38.121094 C 60.203125 43.21875 56.964844 47.792969 53.847656 52.203125 C 53.609375 52.542969 53.238281 52.765625 52.828125 52.820312 C 52.414062 52.871094 52 52.75 51.683594 52.484375 M 53.589844 50.210938 L 51.425781 50.492188 C 54.578125 46.03125 57.609375 41.730469 59.546875 36.996094 C 61.476562 32.277344 62.339844 27.070312 62.421875 22.59375 C 62.5 18.128906 61.800781 14.648438 59.582031 11.703125 C 57.273438 8.636719 53.253906 6.003906 48.90625 3.179688 L 50.777344 2.96875 L 45.1875 8.734375 C 44.753906 9.183594 44.089844 9.308594 43.519531 9.054688 L 36.152344 5.765625 L 38.027344 5.175781 C 34.691406 10.722656 31.621094 15.886719 31.015625 20.507812 C 30.433594 24.972656 32.183594 29.121094 34.910156 32.847656 C 37.632812 36.574219 41.207031 39.703125 44.515625 42.542969 C 47.777344 45.339844 50.636719 47.738281 53.503906 50.140625 Z M 53.589844 50.210938 " fill-opacity="1" fill-rule="nonzero"/></g><g clip-path="url(#737f609525)"><path fill="#d93d76" d="M 52.136719 50.570312 C 54.222656 46.753906 56.300781 42.941406 58.324219 39.15625 L 58.320312 39.160156 L 58.324219 39.152344 L 58.488281 38.84375 L 58.65625 38.53125 C 60.570312 34.949219 62.601562 31.207031 66.140625 27.703125 C 69.828125 24.046875 75.273438 20.53125 80.851562 19.941406 C 81.445312 19.878906 82.035156 19.847656 82.621094 19.847656 C 87.554688 19.847656 92.394531 21.953125 96.867188 23.878906 C 97.519531 24.160156 97.886719 24.859375 97.746094 25.554688 L 96.121094 33.554688 L 95.4375 31.976562 L 102.359375 36.222656 C 103.003906 36.617188 103.253906 37.429688 102.941406 38.117188 C 101.203125 41.96875 99.382812 46.011719 96.714844 49.472656 C 94.019531 52.96875 90.429688 55.917969 85.316406 57.25 C 82.933594 57.875 80.265625 58.132812 77.550781 58.132812 C 74.492188 58.132812 71.324219 57.804688 68.347656 57.261719 C 62.726562 56.238281 57.773438 54.445312 52.941406 52.699219 C 52.53125 52.550781 52.203125 52.230469 52.050781 51.820312 C 51.894531 51.410156 51.925781 50.953125 52.136719 50.570312 M 54.769531 52.007812 L 53.960938 49.878906 C 58.816406 51.632812 63.546875 53.339844 68.886719 54.3125 C 71.710938 54.824219 74.695312 55.132812 77.550781 55.132812 C 80.089844 55.132812 82.492188 54.890625 84.558594 54.347656 C 88.886719 53.21875 91.953125 50.738281 94.339844 47.640625 C 96.757812 44.507812 98.441406 40.792969 100.210938 36.882812 L 100.792969 38.777344 L 93.871094 34.535156 C 93.332031 34.207031 93.058594 33.574219 93.183594 32.957031 L 94.804688 24.957031 L 95.683594 26.632812 C 91.070312 24.648438 86.820312 22.847656 82.621094 22.847656 C 82.132812 22.847656 81.652344 22.871094 81.167969 22.921875 C 76.523438 23.417969 71.675781 26.441406 68.25 29.832031 C 65.066406 32.988281 63.214844 36.359375 61.300781 39.945312 L 61.136719 40.253906 L 60.972656 40.566406 L 60.972656 40.558594 L 60.972656 40.5625 L 60.96875 40.566406 C 58.941406 44.371094 56.851562 48.191406 54.769531 52.007812 Z M 54.769531 52.007812 " fill-opacity="1" fill-rule="nonzero"/></g><path fill="#d93d76" d="M 54.714844 51.582031 L 54.722656 51.582031 L 54.71875 51.582031 C 58.917969 52.574219 63.097656 53.5625 67.082031 54.414062 C 67.738281 54.550781 68.371094 54.683594 69.023438 54.820312 C 69.667969 54.957031 70.308594 55.089844 70.949219 55.226562 C 73.621094 55.796875 76.332031 56.417969 79.230469 57.316406 C 83.453125 58.628906 88.511719 60.648438 91.417969 65.195312 C 94.246094 69.628906 94.851562 76.289062 95.441406 82.390625 C 95.515625 83.152344 94.996094 83.84375 94.242188 83.984375 L 86.335938 85.457031 L 87.519531 84.246094 L 86.199219 92.140625 C 86.109375 92.691406 85.710938 93.144531 85.175781 93.308594 C 82.210938 94.21875 78.980469 95.226562 75.707031 95.226562 C 74.378906 95.226562 73.03125 95.0625 71.675781 94.660156 C 67.015625 93.28125 62.5625 89.191406 59.742188 84.886719 C 56.871094 80.503906 55.613281 75.792969 54.75 70.480469 C 53.886719 65.175781 53.390625 59.117188 52.902344 53.140625 C 52.863281 52.667969 53.054688 52.207031 53.414062 51.898438 C 53.773438 51.589844 54.257812 51.472656 54.714844 51.582031 M 54.035156 54.457031 L 55.847656 52.898438 C 56.339844 58.910156 56.824219 64.839844 57.664062 70.003906 C 58.503906 75.15625 59.671875 79.390625 62.214844 83.265625 C 64.808594 87.222656 68.757812 90.710938 72.515625 91.824219 C 73.566406 92.136719 74.628906 92.269531 75.707031 92.269531 C 78.457031 92.269531 81.25 91.421875 84.308594 90.484375 L 83.285156 91.652344 L 84.605469 83.757812 C 84.707031 83.148438 85.183594 82.664062 85.792969 82.550781 L 93.699219 81.078125 L 92.5 82.675781 C 91.882812 76.300781 91.285156 70.484375 88.925781 66.785156 C 86.640625 63.207031 82.527344 61.4375 78.351562 60.140625 C 75.582031 59.28125 72.976562 58.679688 70.332031 58.117188 C 69.699219 57.980469 69.058594 57.847656 68.421875 57.714844 C 67.765625 57.578125 67.132812 57.445312 66.464844 57.304688 C 62.445312 56.445312 58.230469 55.449219 54.039062 54.457031 L 54.03125 54.457031 Z M 54.035156 54.457031 " fill-opacity="1" fill-rule="nonzero"/><g clip-path="url(#5b9f844ec7)"><path fill="#d93d76" d="M 54.667969 52.613281 C 55.378906 56.675781 56.09375 60.773438 56.601562 64.402344 C 57.113281 68.058594 57.414062 71.246094 57.523438 76.460938 C 57.632812 81.496094 57.621094 89.242188 54.015625 94.113281 C 50.375 99.027344 43.308594 100.695312 37.089844 102.230469 C 36.417969 102.394531 35.71875 102.085938 35.394531 101.476562 L 31.484375 94.214844 L 33.039062 94.996094 L 24.917969 96.171875 C 24.226562 96.269531 23.558594 95.886719 23.296875 95.242188 C 21.511719 90.847656 19.527344 86.050781 20.050781 80.6875 C 20.5625 75.390625 23.488281 69.734375 25.875 66.34375 C 28.398438 62.761719 30.519531 61.464844 35.285156 58.820312 C 40 56.203125 47.675781 52.074219 51.09375 50.582031 C 52.054688 50.164062 52.851562 49.875 53.449219 49.800781 C 53.546875 49.789062 53.652344 49.78125 53.765625 49.78125 C 54.339844 49.78125 55.558594 50.136719 55.558594 51.492188 C 55.558594 51.917969 55.40625 52.265625 55.324219 52.429688 L 53.964844 51.761719 L 55.324219 52.429688 C 55.089844 52.910156 54.636719 53.46875 54.363281 53.8125 L 54.667969 52.613281 M 51.683594 53.132812 C 51.609375 52.707031 51.71875 52.273438 51.988281 51.933594 C 52.355469 51.46875 52.546875 51.214844 52.601562 51.097656 L 53.964844 51.761719 L 52.601562 51.097656 C 52.625 51.050781 52.53125 51.210938 52.53125 51.492188 C 52.53125 52.601562 53.585938 52.8125 53.765625 52.8125 C 53.796875 52.8125 53.816406 52.808594 53.8125 52.808594 L 53.816406 52.808594 C 53.707031 52.824219 53.28125 52.933594 52.304688 53.363281 C 49.042969 54.78125 41.503906 58.835938 36.753906 61.46875 C 32.054688 64.078125 30.457031 65.101562 28.351562 68.089844 C 26.117188 71.265625 23.507812 76.417969 23.066406 80.980469 C 22.628906 85.480469 24.269531 89.589844 26.105469 94.101562 L 24.484375 93.171875 L 32.601562 91.996094 C 33.234375 91.90625 33.851562 92.21875 34.15625 92.777344 L 38.0625 100.039062 L 36.363281 99.289062 C 42.96875 97.65625 48.730469 96.160156 51.578125 92.308594 C 54.460938 88.414062 54.605469 81.800781 54.496094 76.523438 C 54.386719 71.429688 54.09375 68.363281 53.601562 64.820312 C 53.101562 61.253906 52.394531 57.210938 51.683594 53.132812 Z M 51.683594 53.132812 " fill-opacity="1" fill-rule="nonzero"/></g><g clip-path="url(#293aa37f6c)"><path fill="#d93d76" d="M 51.742188 52.46875 L 51.609375 52.546875 C 48.332031 54.453125 45.066406 56.355469 41.792969 58.316406 C 41.566406 58.453125 41.367188 58.574219 41.140625 58.710938 C 40.914062 58.847656 40.707031 58.972656 40.480469 59.109375 C 37.550781 60.863281 34.414062 62.703125 30.054688 64.648438 C 26.128906 66.398438 20.957031 68.359375 16.355469 68.359375 C 15.152344 68.359375 13.957031 68.226562 12.820312 67.90625 C 7.355469 66.363281 3.992188 60.683594 1.027344 55.8125 C 0.707031 55.289062 0.75 54.625 1.125 54.144531 L 6.054688 47.894531 L 5.960938 49.566406 L 1.796875 42.828125 C 1.5 42.351562 1.503906 41.742188 1.8125 41.269531 C 4.074219 37.753906 6.558594 33.84375 10.886719 31.523438 C 13.582031 30.074219 16.929688 29.269531 20.34375 29.269531 C 22.398438 29.269531 24.496094 29.5625 26.511719 30.195312 C 31.820312 31.875 36.378906 35.910156 40.382812 39.511719 C 44.441406 43.160156 48.222656 46.648438 51.996094 50.128906 C 52.335938 50.445312 52.507812 50.902344 52.457031 51.363281 C 52.40625 51.824219 52.140625 52.234375 51.742188 52.46875 M 50.269531 49.941406 L 50.011719 52.277344 C 46.238281 48.796875 42.46875 45.320312 38.429688 41.6875 C 34.332031 38.003906 30.234375 34.441406 25.628906 32.988281 C 23.921875 32.449219 22.125 32.195312 20.34375 32.195312 C 17.367188 32.195312 14.5 32.902344 12.269531 34.097656 C 8.710938 36.007812 6.597656 39.238281 4.269531 42.851562 L 4.285156 41.292969 L 8.449219 48.03125 C 8.769531 48.554688 8.734375 49.222656 8.351562 49.703125 L 3.425781 55.957031 L 3.523438 54.289062 C 6.707031 59.515625 9.488281 63.925781 13.617188 65.089844 C 14.445312 65.324219 15.363281 65.4375 16.355469 65.4375 C 20.28125 65.4375 24.953125 63.722656 28.863281 61.976562 C 33.058594 60.105469 36.074219 58.335938 38.976562 56.597656 C 39.210938 56.457031 39.398438 56.34375 39.632812 56.203125 C 39.855469 56.070312 40.066406 55.941406 40.289062 55.808594 C 43.582031 53.835938 46.863281 51.921875 50.136719 50.019531 Z M 50.269531 49.941406 " fill-opacity="1" fill-rule="nonzero"/></g><path fill="#d93d76" d="M 52.992188 53.691406 C 52.992188 53.929688 52.933594 54.164062 52.824219 54.378906 L 46.300781 66.851562 C 45.921875 67.578125 45.023438 67.859375 44.300781 67.480469 C 43.574219 67.097656 43.292969 66.203125 43.671875 65.476562 L 50.195312 53.003906 L 50.027344 53.691406 C 50.027344 52.871094 50.691406 52.207031 51.507812 52.207031 C 52.328125 52.207031 52.992188 52.871094 52.992188 53.691406 Z M 52.992188 53.691406 " fill-opacity="1" fill-rule="nonzero"/><path fill="#d93d76" d="M 56.117188 53.476562 L 55.75 52.5 L 64.800781 62.777344 C 65.339844 63.390625 65.28125 64.328125 64.667969 64.871094 C 64.054688 65.410156 63.117188 65.351562 62.574219 64.738281 L 53.523438 54.457031 C 53.285156 54.1875 53.152344 53.839844 53.152344 53.476562 C 53.152344 52.660156 53.816406 51.996094 54.636719 51.996094 C 55.453125 51.996094 56.117188 52.660156 56.117188 53.476562 Z M 56.117188 53.476562 " fill-opacity="1" fill-rule="nonzero"/><path fill="#d93d76" d="M 56.410156 51.140625 L 54.3125 49.792969 L 65.820312 44.558594 C 66.566406 44.21875 67.445312 44.550781 67.785156 45.292969 C 68.121094 46.039062 67.792969 46.917969 67.046875 47.257812 L 55.539062 52.492188 C 55.082031 52.699219 54.546875 52.660156 54.125 52.386719 C 53.699219 52.113281 53.445312 51.644531 53.445312 51.140625 C 53.445312 50.320312 54.109375 49.660156 54.925781 49.660156 C 55.746094 49.660156 56.410156 50.320312 56.410156 51.140625 Z M 56.410156 51.140625 " fill-opacity="1" fill-rule="nonzero"/><path fill="#d93d76" d="M 54.613281 50.949219 C 54.613281 51.703125 54.046875 52.335938 53.300781 52.421875 C 52.550781 52.507812 51.855469 52.019531 51.683594 51.289062 L 48.464844 37.585938 C 48.277344 36.785156 48.773438 35.988281 49.570312 35.800781 C 50.367188 35.613281 51.164062 36.109375 51.351562 36.90625 L 54.570312 50.609375 L 51.644531 50.949219 C 51.644531 50.128906 52.308594 49.464844 53.128906 49.464844 C 53.949219 49.464844 54.613281 50.128906 54.613281 50.949219 Z M 54.613281 50.949219 " fill-opacity="1" fill-rule="nonzero"/><path fill="#d93d76" d="M 50.410156 51.261719 C 50.410156 51.675781 50.238281 52.070312 49.933594 52.351562 C 49.632812 52.628906 49.226562 52.773438 48.8125 52.742188 L 36.816406 51.832031 C 36 51.769531 35.390625 51.054688 35.453125 50.238281 C 35.511719 49.421875 36.226562 48.8125 37.042969 48.875 L 49.039062 49.785156 L 47.445312 51.261719 C 47.445312 50.445312 48.109375 49.78125 48.925781 49.78125 C 49.746094 49.78125 50.410156 50.445312 50.410156 51.261719 Z M 50.410156 51.261719 " fill-opacity="1" fill-rule="nonzero"/><path fill="#d93d76" d="M 52.175781 31.433594 L 52.519531 31.824219 C 53.144531 32.675781 53.398438 33.605469 53.28125 34.617188 C 53.15625 35.628906 52.667969 36.484375 51.816406 37.175781 C 50.964844 37.804688 50.03125 38.054688 49.023438 37.9375 C 48.007812 37.8125 47.15625 37.324219 46.460938 36.472656 C 45.835938 35.621094 45.582031 34.6875 45.703125 33.679688 C 45.824219 32.667969 46.3125 31.8125 47.167969 31.117188 C 48.019531 30.492188 48.949219 30.238281 49.960938 30.359375 C 50.285156 30.398438 50.601562 30.480469 50.910156 30.601562 L 51.359375 30.816406 C 51.652344 30.980469 51.925781 31.1875 52.175781 31.433594 " fill-opacity="1" fill-rule="nonzero"/><path fill="#d93d76" d="M 72.652344 41.925781 L 72.996094 42.316406 C 73.625 43.167969 73.875 44.097656 73.757812 45.109375 C 73.632812 46.121094 73.144531 46.976562 72.292969 47.667969 C 71.441406 48.292969 70.507812 48.546875 69.5 48.429688 C 69.175781 48.386719 68.859375 48.308594 68.550781 48.183594 L 68.097656 47.96875 C 67.804688 47.804688 67.535156 47.597656 67.28125 47.351562 C 66.53125 46.570312 66.15625 45.675781 66.148438 44.660156 C 66.144531 43.644531 66.511719 42.742188 67.253906 41.953125 C 68.035156 41.203125 68.933594 40.828125 69.949219 40.820312 C 70.964844 40.816406 71.867188 41.183594 72.652344 41.925781 " fill-opacity="1" fill-rule="nonzero"/><path fill="#d93d76" d="M 69.097656 63.617188 L 69.441406 64.007812 C 70.066406 64.859375 70.320312 65.789062 70.203125 66.800781 C 70.078125 67.8125 69.589844 68.667969 68.738281 69.359375 C 67.886719 69.984375 66.953125 70.238281 65.945312 70.121094 C 65.621094 70.082031 65.304688 70 64.996094 69.875 L 64.542969 69.660156 C 64.25 69.496094 63.976562 69.292969 63.726562 69.042969 C 62.976562 68.261719 62.601562 67.367188 62.59375 66.351562 C 62.589844 65.335938 62.957031 64.433594 63.699219 63.644531 C 64.480469 62.894531 65.378906 62.519531 66.394531 62.511719 C 67.410156 62.507812 68.3125 62.875 69.097656 63.617188 " fill-opacity="1" fill-rule="nonzero"/><path fill="#d93d76" d="M 46.84375 66.808594 L 47.1875 67.199219 C 47.8125 68.050781 48.066406 68.980469 47.945312 69.992188 C 47.820312 71.003906 47.332031 71.859375 46.480469 72.550781 C 45.628906 73.175781 44.699219 73.429688 43.6875 73.3125 C 43.363281 73.269531 43.046875 73.191406 42.738281 73.066406 L 42.289062 72.851562 C 41.992188 72.6875 41.722656 72.480469 41.46875 72.234375 C 40.722656 71.453125 40.34375 70.558594 40.339844 69.542969 C 40.332031 68.527344 40.703125 67.625 41.441406 66.835938 C 42.222656 66.085938 43.121094 65.710938 44.136719 65.703125 C 45.152344 65.699219 46.054688 66.066406 46.84375 66.808594 " fill-opacity="1" fill-rule="nonzero"/><path fill="#d93d76" d="M 36.40625 47.300781 L 36.75 47.6875 C 37.375 48.539062 37.628906 49.46875 37.511719 50.480469 C 37.386719 51.492188 36.898438 52.347656 36.042969 53.042969 C 35.191406 53.667969 34.261719 53.921875 33.253906 53.800781 C 32.925781 53.761719 32.609375 53.679688 32.300781 53.558594 L 31.851562 53.34375 C 31.558594 53.179688 31.285156 52.972656 31.035156 52.726562 C 30.285156 51.945312 29.910156 51.046875 29.902344 50.03125 C 29.898438 49.015625 30.265625 48.113281 31.007812 47.324219 C 31.789062 46.578125 32.6875 46.199219 33.703125 46.195312 C 34.71875 46.1875 35.617188 46.558594 36.40625 47.300781 " fill-opacity="1" fill-rule="nonzero"/></g></g></g></g></g></svg>